<?xml version="1.0" encoding="iso-8859-1"?>
<!-- Generator: Adobe Illustrator 19.0.0, SVG Export Plug-In . SVG Version: 6.00 Build 0)  -->
<svg version="1.1" id="Layer_1" xmlns="http://www.w3.org/2000/svg" xmlns:xlink="http://www.w3.org/1999/xlink" x="0px" y="0px"
	 viewBox="0 0 512 512" style="enable-background:new 0 0 512 512;" xml:space="preserve">
<path style="fill:#FFDA44;" d="M427.729,178.678c0,0.178-0.01,0.355-0.042,0.543l-22.8,304.044
	c0,11.546-43.269,20.898-96.653,20.898s-96.653-9.352-96.653-20.898l-22.8-304.044c-0.031-0.188-0.042-0.366-0.042-0.543
	c0-11.546,53.499-20.898,119.495-20.898S427.729,167.131,427.729,178.678z"/>
<path style="fill:#FFF5CC;" d="M233.472,496.504c-13.678-3.605-21.891-8.213-21.891-13.239l-22.8-304.044
	c-0.031-0.188-0.042-0.366-0.042-0.543c0-4.284,7.377-8.265,20.031-11.577L233.472,496.504z"/>
<path style="fill:#EEBF00;" d="M427.729,178.678c0,0.178-0.01,0.355-0.042,0.543l-22.8,304.044c0,5.026-8.213,9.634-21.891,13.239
	L407.699,167.1C420.352,170.412,427.729,174.393,427.729,178.678z"/>
<path style="fill:#FFF5CC;" d="M427.729,178.678c0,0.178-0.01,0.355-0.042,0.543c-1.63,11.295-54.491,20.355-119.453,20.355
	s-117.823-9.059-119.453-20.355c-0.031-0.188-0.042-0.366-0.042-0.543c0-11.546,53.499-20.898,119.495-20.898
	S427.729,167.131,427.729,178.678z"/>
<path style="fill:#EEBF00;" d="M404.888,483.265c0,11.546-43.269,20.898-96.653,20.898s-96.653-9.352-96.653-20.898
	s43.269-20.898,96.653-20.898S404.888,471.719,404.888,483.265z"/>
<path style="fill:#FFDA44;" d="M122.813,304.224c-47.384,47.384-60.054,113.595-33.161,157.468
	c-6.157,9.295-6.092,20.826,0.823,27.74c6.914,6.914,18.445,6.979,27.74,0.823c43.874,26.894,110.084,14.223,157.468-33.161"/>
<path style="fill:#EEBF00;" d="M263.365,444.775c-46.035,38.029-104.961,46.596-145.149,21.963
	c-9.295,6.157-20.826,6.092-27.74-0.823c-0.732-0.732-1.382-1.519-1.962-2.347c-4.976,8.929-4.494,19.409,1.962,25.865
	c6.914,6.914,18.445,6.979,27.74,0.823C162.09,517.15,228.3,504.48,275.684,457.096L263.365,444.775z"/>
<ellipse transform="matrix(0.7071 -0.7071 0.7071 0.7071 -210.8075 252.3854)" style="fill:#FFF5CC;" cx="199.252" cy="380.66" rx="54.048" ry="108.094"/>
<path d="M435.541,179.339l8.455-112.737c0.021-0.202,0.034-0.408,0.046-0.614l0.007-0.095h-0.003
	c0.009-0.195,0.025-0.388,0.025-0.586c0-11.621-15.765-16.666-31.188-20.069c-14.877-3.283-34.637-5.755-57.471-7.214V15.673h54.857
	V0h-70.531v77.712c-10.288,0.428-20.843,0.655-31.504,0.655c-30.614,0-60.111-1.801-83.054-5.072
	c-19.816-2.825-29.479-5.957-34.018-7.989c4.539-2.031,14.201-5.163,34.018-7.989c22.944-3.271,52.439-5.072,83.054-5.072
	c6.17,0,12.311,0.073,18.252,0.217l0.379-15.669c-6.066-0.147-12.335-0.222-18.632-0.222c-34.601,0-67.192,2.209-91.77,6.221
	c-30.887,5.042-44.066,11.776-44.066,22.513c0,0.197,0.014,0.391,0.023,0.586h-0.001l0.002,0.024
	c0.011,0.233,0.028,0.463,0.052,0.692l8.455,112.757c0.007,0.124,0.017,0.25,0.028,0.372l8.097,107.977l15.63-1.171l-6.851-91.366
	c7.487,2.753,16.614,4.648,25.608,6.183c22.868,3.903,52.982,6.053,84.793,6.053s61.927-2.15,84.793-6.053
	c8.993-1.536,18.121-3.429,25.607-6.183l-20.38,271.729c-5.206-2.302-11.853-4.313-20.019-6.079
	c-18.781-4.059-43.641-6.296-70.002-6.296c-7.202,0-14.295,0.168-21.229,0.498c15.383-27.119-2.303-76.433-43.997-118.129
	c-21.261-21.261-45.518-37.151-68.305-44.747c-24.618-8.208-45.014-5.887-57.431,6.53c-47.75,47.749-62.713,115.496-36.646,163.065
	c-5.625,11.707-4.091,24.83,4.307,33.228c8.399,8.397,21.52,9.933,33.227,4.307c15.626,8.562,33.431,12.699,51.988,12.699
	c34.131,0,70.805-13.997,101.172-40.159c11.733-1.069,24.132-1.619,36.914-1.619c50.57,0,80.386,7.978,87.675,13.061
	c-7.288,5.083-37.104,13.061-87.675,13.061c-19.125,0-37.529-1.225-53.222-3.542l-2.288,15.506
	c16.437,2.426,35.632,3.709,55.51,3.709c26.361,0,51.221-2.236,70.002-6.296c23.115-4.997,34.091-11.969,34.47-21.904l22.803-304.04
	C435.523,179.621,435.534,179.48,435.541,179.339z M123.965,316.459l56.363,56.363h-44.957c-4.093-7.295-7.397-14.573-9.76-21.664
	C120.911,337.054,120.41,324.918,123.965,316.459z M191.412,388.496v46.018c-8.512-6.115-16.884-13.222-24.839-21.178
	s-15.063-16.328-21.178-24.839h46.017V388.496z M207.086,399.579l56.364,56.364c-8.458,3.556-20.594,3.056-34.699-1.647
	c-7.092-2.364-14.369-5.668-21.665-9.76V399.579z M274.533,444.86l-56.364-56.364h44.957c4.093,7.295,7.397,14.574,9.76,21.666
	C277.588,424.266,278.087,436.402,274.533,444.86z M253.103,372.823h-46.017v-46.017c8.512,6.116,16.885,13.223,24.839,21.179
	C239.881,355.939,246.988,364.311,253.103,372.823z M147.992,303.042c6.415,0,13.773,1.32,21.755,3.981
	c7.092,2.364,14.369,5.668,21.665,9.76v44.957l-56.357-56.358C138.726,303.84,143.072,303.042,147.992,303.042z M122.311,483.575
	l-4.258-2.61l-4.164,2.759c-6.288,4.163-13.805,4.237-17.872,0.168c-4.067-4.067-3.995-11.582,0.169-17.872l2.759-4.164l-2.61-4.258
	c-20.606-33.616-15.758-80.659,10.101-120.725c2.882,26.257,20.23,58.722,49.055,87.548c28.827,28.827,61.293,46.171,87.55,49.052
	C202.973,499.332,155.929,504.181,122.311,483.575z M425.598,65.306c-8.434,3.859-30.9,9.015-70.186,11.582V53.723
	C394.698,56.291,417.163,61.447,425.598,65.306z M189.303,81.436c6.8,2.435,15.774,4.525,27.161,6.383
	c24.578,4.012,57.169,6.221,91.77,6.221c10.65,0,21.204-0.219,31.504-0.639v57.27c-10.159-0.478-20.722-0.728-31.504-0.728
	c-32.359,0-62.846,2.215-85.846,6.237c-11.516,2.014-20.408,4.287-26.959,6.96L189.303,81.436z M199.042,178.731
	c4.006-1.98,12.918-5.174,31.9-8.068c21.356-3.255,48.805-5.047,77.293-5.047c11.334,0,21.836,0.265,31.504,0.73v24.646
	c-10.173,0.492-20.764,0.747-31.504,0.747C247.072,191.739,209.986,184.041,199.042,178.731z M385.524,186.694
	c-9.066,1.381-19.237,2.495-30.112,3.325v-22.694c33.325,2.57,54.251,7.536,62.016,11.303
	C413.424,180.606,404.512,183.801,385.524,186.694z M394.081,156.18c-11.301-1.976-24.417-3.513-38.669-4.568V92.589
	c22.834-1.459,42.595-3.932,57.471-7.214c4.897-1.08,9.828-2.329,14.28-3.899l-6.124,81.662
	C414.487,160.466,405.596,158.193,394.081,156.18z"/>
<rect x="339.738" y="219.314" width="15.673" height="180.36"/>
<g>
</g>
<g>
</g>
<g>
</g>
<g>
</g>
<g>
</g>
<g>
</g>
<g>
</g>
<g>
</g>
<g>
</g>
<g>
</g>
<g>
</g>
<g>
</g>
<g>
</g>
<g>
</g>
<g>
</g>
</svg>
