<svg xmlns="http://www.w3.org/2000/svg" width="1401.93" height="402.6" viewBox="0 0 1401.93 402.6"><path d="M1400.26,193l-.48-1.18c-6.43-15.72-11.23-24.64-19.63-29.81l-.86-.5c-5.45-3-10.29-4.06-34-5.57-3-.19-6.9-.28-11.84-.28-13.76,0-32.92,1.78-57,5.28-11.7,1.7-20.17,3.12-26.35,4.16-7.41,1.24-11.89,2-15.88,2.26l-.82,0a22.28,22.28,0,0,0-4.08.68,22.43,22.43,0,0,0-6.64-2.46c-2.33-.45-4.71-.94-7.15-1.43-6-1.22-12.73-2.6-19.61-3.59-3.17-.46-6.29-.84-9.42-1.17v-9.17a22.5,22.5,0,0,0-22.5-22.5h-57.7V63.38l.06-.62a22.82,22.82,0,0,0-.06-4.75v0h0A22.48,22.48,0,0,0,1084,38.13h-9.9V38H976.57q-12-.06-24.1-.08l-22.66,0-11.66,0c-.52,0-1,0-1.48,0H884.06c-.38,0-.71,0-1.12,0q-15.88,0-31.77,0h-6c-3.59,0-7.17,0-10.76-.07-3.75,0-7.5-.08-11.25-.08-5,0-9.28.07-13.27.22H798.47l-4.29-.2a6.5,6.5,0,0,0-1.8.2H772.05a4.61,4.61,0,0,0-1.33-.08c-.34,0-.74,0-1.1.08H751l-1.1,0H649.46c-.25-.67-.49-1.35-.8-2l-.3-.65-.29-.6A22.5,22.5,0,0,0,627.74,21.9H517.07a22.51,22.51,0,0,0-19.59,11.44l-.31.54L496.53,35a23.27,23.27,0,0,0-1.31,2.77H408.79a64.82,64.82,0,0,0-3-6.19c-.26-.48-.53-1-.78-1.44a22.5,22.5,0,0,0-20-12.24,21.85,21.85,0,0,0-3.68.31l-.6.09-.9.15a22.54,22.54,0,0,0-17,13.21c-.28.65-.57,1.29-.86,1.93-.83,1.82-1.76,3.88-2.64,6.22l-3,8.1q-14.81,39.44-29.51,78.91l-.14.36a24,24,0,0,0-9.07,4.19,22.85,22.85,0,0,0-3,2.27,28.58,28.58,0,0,0-8.64,12.2c-9.18,4.35-18.78,10.53-25.36,19.38l-28.08-7c-1.87-.55-3.76-1-5.7-1.42h-.07a68.38,68.38,0,0,0-12.95-1.21c-35.44,0-57,30.51-68.77,56.09-.75,1.63-1.4,3.24-2.1,4.85a97.27,97.27,0,0,0-14.07-28.13C133.5,167,111.07,155.64,84.1,155.64c-21.2,0-50.46,9.67-69.45,55.72A197.5,197.5,0,0,0,0,287c0,23.25,9.34,44.38,27,61.12,17.3,16.38,38.45,25,61.19,25,16.35,0,34.16-6.85,56-21.56a157.69,157.69,0,0,0,15-11.37c12.85,21.32,35.26,32.93,65.64,32.93,10.37,0,25.08-3,39-16.23,8.3,5.93,18.53,9.13,30.17,9.13,9.34,0,19.21-3.16,30.16-9.65,1.29-.76,2.49-1.54,3.64-2.33A47,47,0,0,0,366,373.13c1.18,0,2.3,0,3.38,0,8.87-.2,15.39-1.23,21.3-3.34,17.09-6.14,28.4-20.32,30.71-37.84L440.15,330a42.37,42.37,0,0,0,9.51,23.27c9.13,11,23.69,17.46,43.28,19.24,3.24.29,9.2.62,26.73.62,1.39,0,2.74,0,4,0,10.13-.2,18-1.17,25.07-3.09,22.09-6,35.56-20.65,39.77-34.9,5.49,17.09,20.82,26.31,29,31.2,7.48,4.49,15.34,6.13,24.77,6.63l1.2.05c.8,0,1.59.08,2.42.1,1.39,0,2.82.05,4.33.05a48.82,48.82,0,0,0,35.84-15.69,34.57,34.57,0,0,0,3.34-4.12l.62-.88a35.75,35.75,0,0,0,5.8-14.12c12.65,22.53,35.51,34.81,66.79,34.81,10.38,0,25.08-3,39-16.23,8.3,5.93,18.53,9.13,30.17,9.13a50.71,50.71,0,0,0,19.5-4.27c5.55,7.06,14.25,11.37,24.59,11.37,16.54,0,34-.71,51.93-2.13,20.55-1.62,34.34-3.86,43.39-7l.3-.12c6.06,4.21,14.85,7.56,27.75,8.72,2.73.25,8.33.57,25.51.57,10.89,0,18.79-.82,25.59-2.66a43.63,43.63,0,0,0,12.15-5.22,22.16,22.16,0,0,0,5.36,1.42L1112,372v8.11a22.5,22.5,0,0,0,22.5,22.5h29.09a22.51,22.51,0,0,0,22.5-22.5V373a107,107,0,0,0,27.52-8.63,69.3,69.3,0,0,0,33-33,185.42,185.42,0,0,0,21.12.56c0,1.14,0,2.25,0,3.4,0,15.65,5.19,26.71,15.43,32.86,6.84,4.1,14.62,4.9,25.76,4.9a35.47,35.47,0,0,0,26-11.44,22.34,22.34,0,0,0,2.09-2.57l.61-.88a22.5,22.5,0,0,0,4-12.84v-.9c0-19,.94-46.76,2.46-72.5,1.09-20,2.13-33,3-41.39,10.63-.75,20.47-1.43,29.4-2l1-.07a22.49,22.49,0,0,0,16.54-9l3.43-4.59A22.49,22.49,0,0,0,1400.26,193Zm-120.5-9.79c23-3.35,41.07-5.05,53.74-5.05h0c-12.67,0-30.74,1.7-53.74,5.05-21.12,3.07-30.91,5.11-38.76,6.09h0C1248.85,188.3,1258.64,186.26,1279.76,183.19Zm-49,105.37a36.89,36.89,0,0,0-5.26-14.91,36.89,36.89,0,0,1,5.26,14.91c.19,1.45.34,2.89.44,4.32C1231.09,291.45,1230.94,290,1230.75,288.56Zm-66.08,34.06a64.14,64.14,0,0,0,12.08-3.17,31.8,31.8,0,0,0,8.61-4.77,31.8,31.8,0,0,1-8.61,4.77,64.14,64.14,0,0,1-12.08,3.17Zm-.16-76h0q5.21,1.46,10.39,2.81C1171.45,248.48,1168,247.56,1164.51,246.58Zm21.22-18.64c0-.21-.08-.4-.13-.61.05.21.08.39.13.61Zm32.77-6.41h0v6.41h0Zm-33.41,3.16-.2-1C1185,224,1185,224.35,1185.09,224.69Zm-.62-3.05c-.07-.35-.14-.68-.21-1Zm-.6-2.74c-.06-.28-.13-.57-.2-.84C1183.74,218.33,1183.81,218.62,1183.87,218.9Zm-.64-2.54-.13-.5Zm-.73-2.34c0-.14-.1-.25-.15-.38C1182.4,213.77,1182.45,213.88,1182.5,214Zm-.65-1.54c-.08-.17-.16-.32-.24-.47C1181.69,212.16,1181.77,212.31,1181.85,212.48Zm-.74-1.3c-.09-.14-.18-.27-.28-.4C1180.93,210.91,1181,211,1181.11,211.18Zm-.88-1.09c-.09-.09-.17-.19-.27-.28C1180.06,209.9,1180.14,210,1180.23,210.09Zm-1.26-1-.08,0Zm-1.16-.53c-.13,0-.28-.08-.43-.13A4.38,4.38,0,0,1,1177.81,208.54Zm-1.36-.37-.53-.09Zm-1.61-.22-.57,0Zm-2-.1h0Zm-.72,0c-.89,0-1.86,0-2.91.08C1170.21,207.88,1171.19,207.85,1172.07,207.85Zm-3.9.13-3.65.21Zm-4.1-57.73Zm-29.16,141.62c-.82,10.21-.18,20.55-.18,30.9,0-10.35-.64-20.69.18-30.9a24.91,24.91,0,0,0-.16-6.16A24.91,24.91,0,0,1,1134.91,291.87ZM1070.59,321h0v-22h0Zm-241.2-9.24c-.22-2.41-.35-5.35-.35-9q0-.67.06-2.31-.06,1.64-.06,2.31c0,3.6.13,6.54.35,9a30.63,30.63,0,0,0,1.57,8.12A30.63,30.63,0,0,1,829.39,311.72Zm-537.75,0c-.22-2.41-.35-5.35-.35-9q0-.67.06-2.31-.06,1.64-.06,2.31c0,3.6.13,6.54.35,9a30.63,30.63,0,0,0,1.57,8.12A30.63,30.63,0,0,1,291.64,311.72Zm-88.26-36.49q1.13-6.48,3-13.4Q204.51,268.75,203.38,275.23Zm.49,42.23a66.42,66.42,0,0,1-1.43-8.42A66.42,66.42,0,0,0,203.87,317.46Zm3.5,8.42a20.58,20.58,0,0,1-2.81-5.95A20.58,20.58,0,0,0,207.37,325.88Zm1.07-71.08q2.25-7.12,5.23-14.67c.6-1.5,1.2-3,1.8-4.36q1.82-4.23,3.69-7.89-1.87,3.66-3.69,7.89c-.6,1.4-1.2,2.86-1.8,4.36Q210.69,247.66,208.44,254.8Zm3,74.14a7,7,0,0,1-2.89-1.67A7,7,0,0,0,211.48,328.94ZM234.72,317h0a62.89,62.89,0,0,1-8.72,7.4A62.89,62.89,0,0,0,234.72,317Zm25.21-47A115.83,115.83,0,0,1,255,285.15,115.83,115.83,0,0,0,259.93,270Zm-14-66h0a13.79,13.79,0,0,1,11.12,5.24,22.59,22.59,0,0,1,2.7,4.12,22.59,22.59,0,0,0-2.7-4.12A13.79,13.79,0,0,0,246,204Zm8.24-20.71a37.82,37.82,0,0,0-14-4.65,37.82,37.82,0,0,1,14,4.65,78.85,78.85,0,0,1,10,7.56A78.85,78.85,0,0,0,254.19,183.26Zm262-137.19a24.86,24.86,0,0,1,2.64-.16,24.86,24.86,0,0,0-2.64.16ZM875,187.47c0,18.16-.23,48.34-.69,76.65-.25,15.65-.5,27.13-.74,35.61h0c.24-8.48.49-20,.74-35.61.46-28.31.69-58.49.69-76.65,0-9.33,14.57-9.33,19.36-9.33h0C889.6,178.14,875,178.14,875,187.47Zm-80.21,21.74A13.79,13.79,0,0,0,783.7,204h0a13.79,13.79,0,0,1,11.12,5.24,22.59,22.59,0,0,1,2.7,4.12A22.59,22.59,0,0,0,794.82,209.21ZM1052.73,99.32Zm29.51-2.9a28.68,28.68,0,0,1-3.9,1.41,28.68,28.68,0,0,0,3.9-1.41Zm-7.79,2.26c.84-.13,1.69-.34,2.54-.54C1076.14,98.34,1075.29,98.55,1074.45,98.68Zm-9.13,7.2a58.8,58.8,0,0,1,6.81.31,58.8,58.8,0,0,0-6.81-.31ZM1062,99.19l2.84,0Zm4.69,0c.73,0,1.47,0,2.2-.06Zm3.91-.13c.77,0,1.53-.15,2.3-.23C1072.08,99,1071.32,99.06,1070.55,99.11Zm5.76,45.57a8.62,8.62,0,0,0,1.48-.32,8.62,8.62,0,0,1-1.48.32q-3.11.16-6.24.19Q1073.21,144.84,1076.31,144.68Zm-7.81.2c-1.1,0-2.19-.06-3.28-.11C1066.31,144.82,1067.4,144.87,1068.5,144.88Zm12.08-28.62c.26-3.16.53-6.32.79-9.48-.26,3.16-.53,6.32-.79,9.48Zm-27.85-48.9h0Zm6.47,31.79h-1.68l.4,0Zm.21,6.71h0Zm4.17,38.83c-1.62-.13-3.22-.3-4.81-.58C1060.36,144.39,1062,144.56,1063.58,144.69Zm-10.73-6.62a5.47,5.47,0,0,0,1.31,2.78,5.47,5.47,0,0,1-1.31-2.78c-.31-5.3-.38-10.61-.37-16C1052.47,127.46,1052.54,132.77,1052.85,138.07Zm61.87,98.71c.32.32.73.57,1.08.87C1115.45,237.35,1115,237.1,1114.72,236.78Zm2.63,2.08a15.79,15.79,0,0,0,1.42.73A15.79,15.79,0,0,1,1117.35,238.86Zm3.26,1.65c.53.21,1.15.36,1.72.54C1121.76,240.87,1121.14,240.72,1120.61,240.51Zm-7.12-5.29c-.24-.32-.54-.61-.75-.95C1113,234.61,1113.25,234.9,1113.49,235.22Zm-1.67-3c-.12-.3-.29-.56-.39-.88C1111.53,231.67,1111.7,231.93,1111.82,232.23ZM642.05,106.33c.45-.12.79-.23,1.07-.32-.28.09-.62.2-1.07.32,0,8.12-.19,16.27,0,24.4h0C641.86,122.6,642.05,114.45,642.05,106.33ZM887.31,61.61c-.14.34-.24.59-.36.63-1.12.4-2.11.74-3,1.07.86-.33,1.85-.67,3-1.07C887.07,62.2,887.17,62,887.31,61.61Zm83.77,52.11c.83,0,1.51,0,2.12,0-.61,0-1.3,0-2.12,0Zm65.57-40.16v0Zm-4.06,74.8.21,0Zm.44,0a2,2,0,0,0,.81-.24A2,2,0,0,1,1033,148.35Zm-18.54,1.29c-.53-.21-1-.46-1.56-.7C1013.44,149.18,1014,149.43,1014.49,149.64Zm6.17,1.43c-.6-.06-1.17-.16-1.75-.26C1019.49,150.91,1020.06,151,1020.66,151.07Zm-3.18-.52c-.57-.14-1.11-.31-1.66-.49C1016.37,150.24,1016.91,150.41,1017.48,150.55Zm-183-1.48a2.78,2.78,0,0,0-.55-.14c-7.23-1.25-9.23-1.78-9.92-6.08.69,4.3,2.69,4.83,9.92,6.08A2.78,2.78,0,0,1,834.48,149.07Zm1.23,1a3.48,3.48,0,0,0-.7-.76A3.48,3.48,0,0,1,835.71,150.11ZM935.88,84.52q.06-6,.14-12s0,0,0-.07,0,.05,0,.07Q935.93,78.54,935.88,84.52Zm.29-14.7c0-.28.08-.5.11-.76C936.25,69.32,936.19,69.54,936.17,69.82Zm.36-2.24a7,7,0,0,1,.23-.73A7,7,0,0,0,936.53,67.58Zm.62-1.78a5.87,5.87,0,0,1,.37-.59A4.92,4.92,0,0,0,937.15,65.8Zm.93-1.34a4.41,4.41,0,0,1,.52-.45A4.41,4.41,0,0,0,938.08,64.46Zm1.3-1a6.06,6.06,0,0,1,.68-.3A6.06,6.06,0,0,0,939.38,63.5Zm1.7-.6a7.27,7.27,0,0,1,.86-.17A7.27,7.27,0,0,0,941.08,62.9Zm2.17-.3,1-.05Zm28.36,40.92a3.38,3.38,0,0,0,.18.93,3.38,3.38,0,0,1-.18-.93c-.11-8.35-.08-16.71-.1-25.06C971.53,86.81,971.5,95.16,971.61,103.52Zm15.2,13.7a11.3,11.3,0,0,0-2-1.85A11.3,11.3,0,0,1,986.81,117.22Zm1.37-10.71c.18-.1.37-.18.54-.28C988.55,106.33,988.36,106.41,988.18,106.51Zm.82,13.81a19.06,19.06,0,0,0-1.86-2.7A19.06,19.06,0,0,1,989,120.32Zm-6.21-12h0Zm2.67-.64.73-.26Zm-1.1,7.41A9.19,9.19,0,0,0,982,114,9.19,9.19,0,0,1,984.36,115.09Zm-2.67-1.2a11.5,11.5,0,0,0-2.69-.36A11.5,11.5,0,0,1,981.69,113.89Zm-3.76-5.72a15.67,15.67,0,0,0,2.25.26A15.67,15.67,0,0,1,977.93,108.17Zm.66,5.34a15.46,15.46,0,0,0-2.28.19h0A15.46,15.46,0,0,1,978.59,113.51Zm-5-6.68a15.33,15.33,0,0,0,3.26,1.17A15.33,15.33,0,0,1,973.57,106.83Zm1.36,7h-.49A4,4,0,0,0,974.93,113.78Zm1.58,34.13a10.3,10.3,0,0,1-3.17-1.92A10.3,10.3,0,0,0,976.51,147.91Zm6.7,1.36,0,.43c0-.14,0-.29,0-.43-1-.16-2.05-.25-3.07-.38C981.16,149,982.2,149.11,983.21,149.27ZM998.92,135c-3-4.17-6.07-8.37-8.74-12.76C992.85,126.63,995.87,130.83,998.92,135Zm-8-30.37c.16-.13.3-.29.45-.43C991.23,104.34,991.09,104.5,990.93,104.63Zm2-2.07c.16-.21.32-.41.47-.63C993.2,102.15,993,102.35,992.88,102.56Zm2.47-25.34c.24.51.5,1,.7,1.53C995.85,78.2,995.59,77.73,995.35,77.22Zm1.55,4.51c.12.5.29,1,.38,1.47C997.19,82.68,997,82.23,996.9,81.73ZM975.56,66.5c-1.42.15-2.67.32-3.4,1.18.73-.86,2-1,3.4-1.18Zm3.77,0c.67,0,1.31.09,1.94.18C980.64,66.55,980,66.49,979.33,66.46Zm4.23.62a16.25,16.25,0,0,1,1.72.51A16.25,16.25,0,0,0,983.56,67.08Zm3.74,1.4a15.37,15.37,0,0,1,1.49.83A15.37,15.37,0,0,0,987.3,68.48Zm3.23,2.17a14.7,14.7,0,0,1,1.25,1.12A14.7,14.7,0,0,0,990.53,70.65Zm2.7,2.91c.33.45.68.87,1,1.36C993.91,74.44,993.56,74,993.23,73.56Zm-20.37,71.53c-.58-7-.93-14-1.27-21C971.93,131.12,972.29,138.13,972.86,145.09ZM947,150.56c.19-.49.25-.7.3-.8-.05.1-.11.31-.3.8Zm6.2-2.88a7,7,0,0,0,1.63-1.85A7,7,0,0,1,953.22,147.68Zm3.37-43.81c0-10.86.06-21.71,0-32.56a10.08,10.08,0,0,0-1.17-5.45,10.08,10.08,0,0,1,1.17,5.45C956.65,82.16,956.59,93,956.59,103.87Zm-21.08,4.78c-.11,3.91-.25,7.81-.46,11.71-.07,1.51-.22,3-.42,4.35.2-1.39.35-2.84.42-4.35C935.26,116.46,935.4,112.56,935.51,108.65Zm-2.78,23.76c.26-.72.48-1.47.7-2.23C933.21,130.94,933,131.69,932.73,132.41Zm1.12-3.68c.21-.87.37-1.79.54-2.71C934.22,126.94,934.06,127.86,933.85,128.73ZM925.24,144c.46-.44.92-.89,1.35-1.36C926.16,143.14,925.7,143.59,925.24,144Zm2.29-2.45c.41-.49.81-1,1.19-1.53C928.34,140.58,927.94,141.09,927.53,141.58Zm2-2.74c.36-.56.69-1.14,1-1.73C930.25,137.7,929.92,138.28,929.56,138.84Zm1.73-3.06c.31-.63.59-1.28.87-1.94C931.88,134.5,931.6,135.15,931.29,135.78Zm-32.16,17.36-.58,0c.65,0,1.3,0,2,0C900,153.11,899.59,153.14,899.13,153.14Zm2.94-.09c.73,0,1.44-.11,2.16-.18C903.51,152.94,902.8,153,902.07,153.05Zm3.62-.33c.77-.1,1.51-.24,2.26-.37C907.2,152.48,906.46,152.62,905.69,152.72Zm3.51-.59c.92-.2,1.81-.44,2.7-.69C911,151.69,910.12,151.93,909.2,152.13Zm3.36-.86c1.09-.34,2.16-.72,3.2-1.15C914.72,150.55,913.66,150.93,912.56,151.27Zm4-1.54c.74-.33,1.47-.66,2.18-1C918.07,149.07,917.34,149.4,916.6,149.73Zm3.24-1.66c.6-.35,1.19-.7,1.76-1.09C921,147.37,920.44,147.72,919.84,148.07Zm2.84-1.88c.52-.39,1-.79,1.53-1.22C923.72,145.4,923.2,145.8,922.68,146.19Zm-29,6.7a51.79,51.79,0,0,1-8.4-1.44,51.79,51.79,0,0,0,8.4,1.44Zm-15.78-78c.13,12.56.19,25.14.55,37.7-.36-12.56-.42-25.14-.55-37.7h0Zm-16,18.28c0,7.4,0,14.8.25,22.2C861.87,108,861.84,100.58,861.87,93.18Zm-7-15.41-.15.08.15-.08V63.26h0Zm-1.4.8c-.8-5.68-3.26-8.29-6.44-9.55,3.18,1.26,5.64,3.87,6.44,9.55Zm-14.1-10.78h0Zm4.07.33a17.48,17.48,0,0,1,2.33.48A17.48,17.48,0,0,0,843.4,68.12Zm-13.64-.66c-1.92,0-3.86.08-5.92.08C825.89,67.54,827.85,67.48,829.76,67.46Zm-22.23,74.3c-.23,2.4-.79,3.79-2.18,5C806.74,145.55,807.3,144.16,807.53,141.76Zm.19-37.93q0-15.8,0-31.58c0-.7,0-1.41-.09-2.19.05.78.09,1.49.09,2.19Q807.74,88,807.72,103.83ZM775.24,73.35c.24-2.24.48-4.5.73-6.8C775.72,68.85,775.48,71.11,775.24,73.35Zm-1.66-10.42a16.85,16.85,0,0,1,2.74.28A17,17,0,0,0,773.58,62.93Zm-.83,0-.55,0Zm-1.54.23-.38.1Zm-1.49.65a1.22,1.22,0,0,0-.17.15A1.22,1.22,0,0,1,769.72,63.8Zm-.9.85c-.09.11-.17.25-.26.37C768.65,64.9,768.73,64.76,768.82,64.65Zm-72.44,23h0c.22,8,.38,15.94.6,23.91C696.76,103.56,696.6,95.59,696.38,87.62ZM503,178.58h0c.55,0,1.1,0,1.63,0h0c-.73,0-1.49,0-2.24,0C502.64,178.62,502.84,178.58,503,178.58Zm17.11-.44Zm154.73,0ZM509.17,123.7a83.66,83.66,0,0,0,1.59-10.52A83.66,83.66,0,0,1,509.17,123.7Zm257.3-43.63q-.3,16.74-.59,33.49.29-16.75.59-33.49c0-1.72.09-3.45.19-5.17C766.56,76.62,766.5,78.35,766.47,80.07Zm-1.75,70.23c-.3.89-.66,1.77-.91,2.66h0C764.06,152.07,764.42,151.19,764.72,150.3Zm-5.85-.1q-29.19-30.09-58.2-60.36c-1.12-1.17-2.22-2.34-3.51-3.68h0c1.29,1.34,2.4,2.51,3.51,3.68q29.07,30.21,58.2,60.36a5.54,5.54,0,0,0,1.06.86A5.54,5.54,0,0,1,758.87,150.2ZM665.56,98.31c-.45.11-.91.25-1.37.33.46-.08.92-.23,1.37-.34Zm-5.17.8c.74,0,1.47-.16,2.21-.26C661.86,99,661.13,99.06,660.39,99.11Zm-3.83.14c.7,0,1.39,0,2.09-.06C658,99.21,657.26,99.25,656.56,99.25Zm-4.83-.07,3.11,0Zm-4.65-.06.4,0,1.24,0Zm-121.24,18.3c.4-1.77.74-3.61,1-5.53C526.58,113.81,526.24,115.65,525.84,117.42Zm-3.19,9.69c.4-.89.74-1.85,1.09-2.79C523.39,125.26,523.05,126.22,522.65,127.11Zm1.79-4.62c.36-1.09.65-2.26.95-3.42C525.09,120.23,524.8,121.4,524.44,122.49ZM511,104.12c-.05-.59-.16-1.13-.22-1.71C510.85,103,511,103.53,511,104.12Zm-2.42-11.69c.21.61.45,1.2.63,1.84C509,93.63,508.8,93,508.59,92.43Zm1.32,4.69c.14.63.31,1.22.43,1.87C510.22,98.34,510.05,97.75,509.91,97.12Zm-5.19-12.74c.34.53.7,1.05,1,1.61C505.42,85.43,505.06,84.91,504.72,84.38Zm2.13,3.82c.28.57.58,1.13.83,1.73C507.43,89.33,507.13,88.77,506.85,88.2ZM502.23,81c.4.49.82,1,1.19,1.47C503.05,81.92,502.63,81.45,502.23,81Zm-21.1-12.74c.66.17,1.32.34,2,.53C482.45,68.56,481.79,68.39,481.13,68.22Zm4.13,1.24c.63.22,1.25.44,1.86.68C486.51,69.9,485.89,69.68,485.26,69.46Zm3.92,1.59c.58.27,1.17.54,1.75.83C490.35,71.59,489.76,71.32,489.18,71.05ZM492.86,73c.54.33,1.1.65,1.62,1C494,73.63,493.4,73.31,492.86,73Zm3.42,2.29c.5.38,1,.75,1.49,1.16C497.29,76,496.78,75.65,496.28,75.27Zm3.13,2.66c.45.43.92.85,1.35,1.31C500.33,78.78,499.86,78.36,499.41,77.93ZM467.75,66.5c.73,0,1.46,0,2.19.08C469.21,66.54,468.48,66.52,467.75,66.5Zm4.6.25c.72.06,1.43.13,2.13.22C473.78,66.88,473.07,66.81,472.35,66.75Zm4.47.57c.69.11,1.38.23,2.06.37C478.2,67.55,477.51,67.43,476.82,67.32Zm290.6.55c0-.18.1-.35.14-.52C767.52,67.52,767.47,67.69,767.42,67.87Zm.48-1.57c.06-.17.14-.33.21-.49C768,66,768,66.13,767.9,66.3ZM1002.53,140c.62.86,1.26,1.68,1.93,2.45C1003.8,141.66,1003.15,140.84,1002.53,140Zm2.68,3.23c.49.53,1,1.06,1.49,1.54C1006.19,144.27,1005.7,143.74,1005.21,143.21Zm2.45,2.33c.48.41,1,.82,1.46,1.19C1008.61,146.36,1008.14,146,1007.66,145.54Zm2.55,1.89c.49.32,1,.65,1.5.93C1011.19,148.08,1010.7,147.75,1010.21,147.43Zm12,3.73c.77,0,1.53.09,2.34.06h0l-1,0C1023.07,151.24,1022.65,151.18,1022.21,151.16Zm12-.06q5.48,0,11,.14Q1039.72,151.12,1034.24,151.1Zm-.1-3.24a2.59,2.59,0,0,0,.55-.62A2.8,2.8,0,0,1,1034.14,147.86Zm.8-1.05a7.2,7.2,0,0,0,.44-1.07A7.2,7.2,0,0,1,1034.94,146.81Zm.63-1.6c.18-.63.34-1.32.49-2.14C1035.91,143.89,1035.75,144.58,1035.57,145.21Zm-8.41-82.65c7.83,1.4,9.21,2,9.44,7.88C1036.37,64.53,1035,64,1027.16,62.56Zm1.49,83.75h0c-1.39-1.08-2.74-2.23-4.06-3.41C1025.91,144.08,1027.26,145.23,1028.65,146.31Zm3.11,1.86-.37-.15Zm-1.26-.6-.39-.23ZM995.9,62.29a50.82,50.82,0,0,0-12.62-1.76q-16-.12-32.11-.1h1.3q15.4,0,30.81.1a50.82,50.82,0,0,1,12.62,1.76,22,22,0,0,1,13.43,9.7A22,22,0,0,0,995.9,62.29Zm-77.73-1.82c-1.49,0-3,.28-4.48.43h0c1.49-.15,3-.43,4.49-.43h0Zm-2.48,1.88a5.67,5.67,0,0,1-1.9-1.36A5.67,5.67,0,0,0,915.69,62.35Zm.19,79.48c7.34-5.26,8.77-13.4,9-21.47s.22-16.44.2-24.66c0,8.22,0,16.44-.2,24.66s-1.63,16.22-9,21.47a26.39,26.39,0,0,1-3.11,1.92A26.39,26.39,0,0,0,915.88,141.83Zm-13,4.62a20.36,20.36,0,0,0,2.21-.18A20.36,20.36,0,0,1,902.84,146.45Zm3.44-.39c.7-.14,1.4-.31,2.1-.52C907.68,145.75,907,145.92,906.28,146.06Zm3.3-.9c.73-.27,1.46-.59,2.18-.93C911,144.57,910.31,144.89,909.58,145.16Zm-8.9,1.29.93.05Zm-5.77-1c.3.09.6.16.89.23C895.51,145.58,895.21,145.51,894.91,145.42Zm2.86.68,1,.16Zm-5.71-1.68a22.64,22.64,0,0,1-5.57-3.27,22.64,22.64,0,0,0,5.57,3.27h0Zm-9.17-83.95q-18.89,0-37.76,0c-4,0-8,0-12-.08,4,0,8,.08,12,.08h6q15.86,0,31.72,0c1,0,2,.1,3.11.2C884.93,60.57,883.9,60.47,882.89,60.47ZM822,60.31l1.15,0H822Zm-13.34.26h0Zm-9.61,0c1.75.07,3.5.11,5.25.11C802.52,60.66,800.77,60.62,799,60.55ZM787.07,60l1.89.08Zm5.91.27,4.19.19ZM779.06,60c.88,0,1.75-.06,2.63-.06h.15C780.92,59.9,780,59.93,779.06,60Zm-6,.36c1.46-.16,2.91-.26,4.37-.32C776,60.05,774.56,60.15,773.1,60.31Zm-7.29.38,1.77,0Zm-8.44-.07c1.63,0,3.25.06,4.88.07C760.62,60.68,759,60.65,757.37,60.62Zm-8.44-.12a21.47,21.47,0,0,0-3.6.6,21.47,21.47,0,0,1,3.6-.6h.92c.8,0,1.62,0,2.42,0C751.16,60.52,750,60.49,748.93,60.5ZM750,62.94c-.79-.13-1.68-.25-2.67-.37a3.73,3.73,0,0,1-.46-.09,3.73,3.73,0,0,0,.46.09C748.32,62.69,749.21,62.81,750,62.94Zm8,63.74c-.13.29-.31.67-.51,1.22h0C757.71,127.35,757.89,127,758,126.68ZM666.07,68.75a9.17,9.17,0,0,0-1.43-.64,9.61,9.61,0,0,1,1.43.61Zm-10.57-1.4h0Zm2.14,0c.71,0,1.41,0,2.11,0C659.05,67.36,658.35,67.34,657.64,67.34Zm2.52.06c.69,0,1.37.09,2,.17C661.53,67.49,660.85,67.43,660.16,67.4Zm2.37.22a16.3,16.3,0,0,1,1.92.42A16.3,16.3,0,0,0,662.53,67.62Zm-20.17-.27v32h0v-32h0ZM626.19,91c0,8,0,15.94,0,23.91,0,5.9,0,11.81-.08,17.71h0c0-5.9.08-11.81.08-17.71q0-12,0-23.91c0-1.88,0-3.77,0-5.65h0C626.18,87.26,626.19,89.15,626.19,91Zm-30.1-16.71h0Q591,88.18,585.84,102l-2.77,7.44,2.77-7.44Q591,88.19,596.09,74.32Zm-19.22,51.77h0c.79-2.14,1.57-4.22,2.34-6.27C578.44,121.87,577.66,124,576.87,126.09Zm-12.33,11.16h0q-7.5-19.41-15-38.84h0Q557,117.84,564.54,137.25ZM504.93,66a49.38,49.38,0,0,0-18.14-4.5c-13.14-.85-26.34-.86-39.53-.92,13.19.06,26.39.07,39.53.92A49.38,49.38,0,0,1,504.93,66Zm-72.36-5.37a8.46,8.46,0,0,1,1.41-.16h.09A8.49,8.49,0,0,0,432.57,60.65Zm9.09,12.71a34.55,34.55,0,0,0-.25-4.89A34.55,34.55,0,0,1,441.66,73.36Zm-.36-5.44a6,6,0,0,0-.83-2.17A6,6,0,0,1,441.3,67.92ZM380.82,114.8c3.89,0,7.77,0,11.65-.2q-5.72.21-11.43.21Zm-16.46,1.89c.09-.15.21-.24.31-.38C364.57,116.45,364.45,116.54,364.36,116.69Zm1-1.19a3.89,3.89,0,0,1,.54-.27A3.89,3.89,0,0,0,365.36,115.5Zm1.4-.68a6.3,6.3,0,0,1,.8-.09A6.3,6.3,0,0,0,366.76,114.82ZM751.42,240.13c.6-1.5,1.2-3,1.8-4.36q1.81-4.23,3.69-7.89-1.87,3.66-3.69,7.89c-.6,1.4-1.2,2.86-1.8,4.36q-3,7.53-5.23,14.67Q748.44,247.68,751.42,240.13Zm4.73-58.48h0a35.86,35.86,0,0,1,15.4-3.51h0A35.86,35.86,0,0,0,756.15,181.65ZM850,318c-4.25,1.57-7.54,2.62-10.09,3.31C842.47,320.63,845.76,319.58,850,318Zm61.09,2.79q13.86-.45,15.71-.46h0q-1.84,0-15.71.46c-2.59.09-4.63.15-6.24.23h0C906.47,321,908.51,320.89,911.1,320.8Zm82.4-117.16a20.37,20.37,0,0,0,7.42,1.7,88,88,0,0,1,1.89,11,88,88,0,0,0-1.89-11A20.37,20.37,0,0,1,993.5,203.64Zm-.06,125.94c1.87-.68,4.44-1.54,7.85-2.62-3.41,1.08-6,2-7.85,2.62Zm8.75-12.72c-.1,1.94-.2,3.56-.31,4.9C1002,320.42,1002.09,318.8,1002.19,316.86Zm-1.36-137.73.86-.13Zm-6.44,1.19c-.39.1-.88.21-1.43.36.55-.15,1-.26,1.43-.36Zm76.29,64.34a32.28,32.28,0,0,0,3.81,9A32.28,32.28,0,0,1,1070.68,244.66Zm53.8-3c.63.14,1.34.22,2,.33C1125.81,241.92,1125.11,241.84,1124.48,241.7Zm4.46.71c.72.07,1.52.08,2.29.12C1130.46,242.49,1129.66,242.48,1128.94,242.41Zm5.26.24h0V208h0ZM1078,175c-.11-.16-.25-.32-.36-.48l1.06,0Zm1.72-22.95.33,0-.3,0Zm4.93-1.89a1.29,1.29,0,0,0,.23-.43c.59-2.4,1-4.84,1.35-7.29-.35,2.45-.76,4.89-1.35,7.29A1.29,1.29,0,0,1,1084.65,150.16Zm-.45.42a2.17,2.17,0,0,0,.41-.38A2.17,2.17,0,0,1,1084.2,150.58Zm-3.74,1.42.34-.06Zm.79-.15c.15,0,.3-.08.45-.12C1081.55,151.77,1081.4,151.82,1081.25,151.85Zm.82-.22.48-.18Zm.8-.3.42-.21Zm.73-.35c.15-.09.27-.18.4-.27Zm-1.19-73.34-.08,0,.08,0ZM558.35,44.41c-1.55.66-2.75,1.18-3.82,1.68,1.07-.5,2.27-1,3.82-1.68ZM535,60.54c-.36-1-.73-1.91-1.12-2.85C534.22,58.63,534.59,59.58,535,60.54Zm-1.29-3.26c-.38-.91-.79-1.79-1.22-2.64C532.87,55.49,533.28,56.37,533.66,57.28Zm-1.44-3.06a21.73,21.73,0,0,0-1.45-2.37A21.73,21.73,0,0,1,532.22,54.22Zm-1.72-2.73a14.68,14.68,0,0,0-1.8-2.05A14.68,14.68,0,0,1,530.5,51.49Zm-2.09-2.3a12.35,12.35,0,0,0-2.31-1.64A12.35,12.35,0,0,1,528.41,49.19Zm-2.56-1.76a12.83,12.83,0,0,0-3-1.1A12.83,12.83,0,0,1,525.85,47.43Zm-3-1.11a17.38,17.38,0,0,0-3.68-.39A17.38,17.38,0,0,1,522.82,46.32ZM432.05,60.7c-.64.13-1.28.27-1.93.37a5,5,0,0,0,.6.7,5,5,0,0,1-.6-.7C430.77,61,431.41,60.83,432.05,60.7Zm-29.84,69.21c-1.33-3.63-2.68-7.27-3.89-10.94,0,0,0,0,0,0s0,0,0,0c1.21,3.67,2.56,7.31,3.89,10.94Zm-8.28-15.18a6.15,6.15,0,0,1,.9.11A6.15,6.15,0,0,0,393.93,114.73Zm1.86.58a4.89,4.89,0,0,1,.6.33A4.89,4.89,0,0,0,395.79,115.31Zm1.36,1.26c.11.16.24.27.34.44C397.39,116.84,397.26,116.73,397.15,116.57Zm-3-9c-4.29-12.69-8.43-24.89-12.56-37.1,4.13,12.21,8.27,24.41,12.56,37.1ZM268.67,194.8h0a18.5,18.5,0,0,1,3.38-2c.13-.06.3-.09.43-.15h0c-.13.06-.3.09-.43.15A18.5,18.5,0,0,0,268.67,194.8Zm26.77,127.71Zm15.79-4.13c-3.73,1.35-6.73,2.31-9.06,2.94C304.5,320.69,307.5,319.73,311.23,318.38ZM719.41,229.9q-3.54,8.7-6.08,17.23Q715.87,238.61,719.41,229.9ZM772.47,317h0c-8.07,8.07-15.32,12.17-21.54,12.17C757.15,329.16,764.4,325.06,772.47,317Zm19.47-133.73a37.82,37.82,0,0,0-14-4.65,37.82,37.82,0,0,1,14,4.65,78.85,78.85,0,0,1,10,7.56A78.85,78.85,0,0,0,791.94,183.26Zm32.32,7h0c-7.84,0-13.82,1.51-17.84,4.51h0C810.44,191.8,816.42,190.29,824.26,190.29Zm8.23,1.56c-.13-.07-.32-.11-.46-.18C832.17,191.74,832.36,191.78,832.49,191.85Zm-2.88,95.79c-.07,1.44-.13,2.95-.19,4.56C829.48,290.59,829.54,289.08,829.61,287.64Zm3.58,34.87Zm174.39-143.89c.18,0,.38,0,.57,0,.56,0,1.12,0,1.67,0,1.78,0,4.41-.07,7.81-.23l2.44-.1-2.44.1c-3.4.16-6,.23-7.81.23C1009.08,178.59,1008.33,178.61,1007.58,178.62Zm17.68-.48h0l-1.37,0Zm10.08,146.65h0l0,0,0,0Zm.71.57-.23-.17Zm-.43-.33-.14-.12Zm2.19,1.41-.51-.3Zm-1-.61-.36-.23Zm2.47,1.33c-.25-.11-.43-.21-.64-.32Zm4.26,1.83c.54.21,1,.43,1.51.65-.5-.22-1-.44-1.51-.65l-.19-.07Zm-2.39-1-.68-.31Zm75.07-8.3A8.19,8.19,0,0,1,1113,316a19.77,19.77,0,0,1-1.24-4,19.77,19.77,0,0,0,1.24,4,8.19,8.19,0,0,0,3.16,3.77,15.24,15.24,0,0,0,5.6,1.87A15.24,15.24,0,0,1,1116.18,319.72ZM1086.4,141.27c.35-2.49.65-5,1-7.48l-.87-.17.87.17C1087.05,136.28,1086.75,138.78,1086.4,141.27Zm-.73-7.82c-.39,1-.87,2.06-1.18,3.11.31-1.05.79-2.07,1.18-3.11Zm-665.79-2.88C409.26,102.72,398.83,74.82,388.27,47,398.83,74.81,409.26,102.72,419.88,130.57ZM385,40.42l-1.51.25c-.67,1.53-1.36,3-2,4.56.66-1.52,1.35-3,2-4.56ZM233.8,178.14h0c-10.63,0-20.43,4.58-29.31,13.67C213.37,182.72,223.17,178.14,233.8,178.14ZM195.91,202.4a83.67,83.67,0,0,1,5.65-7.39,83.67,83.67,0,0,0-5.65,7.39,129.28,129.28,0,0,0-10.45,18.76A129.28,129.28,0,0,1,195.91,202.4Zm-14.25,27.5q-3.54,8.7-6.08,17.23Q178.12,238.61,181.66,229.9Zm-8.37,25.7a148.31,148.31,0,0,0-3.06,16.61A148.31,148.31,0,0,1,173.29,255.6ZM191,341.82a45.36,45.36,0,0,0,9.57,4.89A45.36,45.36,0,0,1,191,341.82Zm15,6.61a74.8,74.8,0,0,0,18.85,2.2h0A74.8,74.8,0,0,1,206,348.43Zm55.15-25.14q1.69-2.9,3.51-6.26h0Q262.85,320.39,261.16,323.29Zm32.91,20.24h0a21.73,21.73,0,0,0,4.07-.4A21.73,21.73,0,0,1,294.07,343.53ZM314.4,336a34.34,34.34,0,0,0,4.38-3.34h0A34.34,34.34,0,0,1,314.4,336Zm429.36,12.45a74.8,74.8,0,0,0,18.85,2.2h0A74.8,74.8,0,0,1,743.76,348.43Zm41.51-7.09a48.72,48.72,0,0,0,4.5-4.57A48.72,48.72,0,0,1,785.27,341.34Zm13.64-18q1.7-2.9,3.51-6.26h0Q800.61,320.39,798.91,323.29Zm7.37,5.3q5,9.93,14.72,13.27Q811.33,338.53,806.28,328.59Zm25.54,14.94c.65,0,1.36-.13,2-.2-.67.07-1.38.2-2,.2Zm39.5,6.09h0a10.07,10.07,0,0,0,4.59,1h0A10.07,10.07,0,0,1,871.32,349.62ZM1076.5,345h0l9.71,1.18Zm55.73,6.74,2.25.27V380.1h0V352.05Zm71.6-7.67a71.57,71.57,0,0,1-9.37,3.71,95.26,95.26,0,0,1-9.81,2.54c-6.69,1.4-13.71,2.26-21.08,3.09V380.1h0V353.45c7.37-.83,14.39-1.69,21.08-3.09a95.26,95.26,0,0,0,9.81-2.54,71.57,71.57,0,0,0,9.37-3.71,48.22,48.22,0,0,0,10.67-6.95A48.22,48.22,0,0,1,1203.83,344.11Zm90.85,4.83c-3.08-1.85-4.52-6.16-4.52-13.57,0-49.63,1.24-94.22,3.69-123.6-3.83-.07-13.25-.14-34.53-.14-11,0-8.87-.23-11.9-.71a37.49,37.49,0,0,1-6.42-1.57h0a37.49,37.49,0,0,0,6.42,1.57c3,.48.87.71,11.9.71,21.28,0,30.7.07,34.53.14-2.45,29.38-3.69,74-3.69,123.6,0,7.41,1.44,11.72,4.52,13.57,1.31.79,4.1,1.69,14.17,1.69h0C1298.78,350.63,1296,349.73,1294.68,348.94Z" fill="#2f592b" opacity="0.3"></path><path d="M1400.26,175.06l-.48-1.18c-6.43-15.72-11.23-24.65-19.63-29.81l-.86-.5c-5.45-3-10.29-4.06-34-5.57-3-.19-6.9-.28-11.84-.28-13.76,0-32.92,1.78-57,5.28-11.7,1.7-20.17,3.12-26.35,4.16-7.41,1.24-11.89,2-15.88,2.25l-.82.06a21.46,21.46,0,0,0-4.08.68,22.45,22.45,0,0,0-6.64-2.47c-2.33-.44-4.71-.93-7.15-1.43-6-1.21-12.73-2.59-19.61-3.59-3.17-.46-6.29-.83-9.42-1.16v-9.17a22.5,22.5,0,0,0-22.5-22.5h-57.7V45.46l.06-.62a22.93,22.93,0,0,0-.06-4.76v0h0A22.48,22.48,0,0,0,1084,20.21h-9.9v-.12H976.57l-5.12,0h-54.1l-.68,0H884.06l-.48,0H810.4l-.55,0H798.47l-.37,0h-5.56l-.16,0H772.05c-.1,0-.2,0-.3,0h-1.88l-.25,0H751l-1.1,0h-1.07l-.3,0h-99c-.25-.68-.49-1.35-.8-2l-.3-.65-.29-.6A22.49,22.49,0,0,0,627.74,4H517.07a22.49,22.49,0,0,0-19.59,11.44l-.31.54-.64,1.13a22.56,22.56,0,0,0-1.31,2.77H408.79a63.66,63.66,0,0,0-3-6.19c-.26-.48-.53-1-.78-1.45A22.51,22.51,0,0,0,385,0a22.93,22.93,0,0,0-3.68.3l-.6.1-.9.15a22.5,22.5,0,0,0-17,13.2c-.28.65-.57,1.3-.86,1.94-.83,1.82-1.76,3.88-2.64,6.21l-3,8.1q-14.81,39.45-29.51,78.92l-.14.36a23.85,23.85,0,0,0-9.07,4.19A22.62,22.62,0,0,0,308,138.8a23.05,23.05,0,0,0,1,2.59,56.31,56.31,0,0,0-13.51,9.26l-39.73-10.81-.4-.11-.32-.09v0a70.42,70.42,0,0,0-21.23-1.94,58.09,58.09,0,0,0-12.79,1.4c-24.54,3.72-44.84,13.74-57.37,28-13.89-16.59-37.38-27.45-64-29-4.6-.26-8.23-.37-11.24-.28-1.43-.06-2.87-.11-4.33-.11-21.2,0-50.46,9.67-69.45,55.72A197.5,197.5,0,0,0,0,269.06c0,23.24,9.34,44.38,27,61.11,17.3,16.38,38.45,25,61.19,25,16.35,0,34.16-6.85,56-21.56a159.39,159.39,0,0,0,15-11.37c12.85,21.31,35.26,32.93,65.64,32.93,10.37,0,25.08-3,39-16.24,8.3,5.94,18.53,9.14,30.17,9.14,9.34,0,19.21-3.16,30.16-9.65,1.29-.77,2.49-1.55,3.64-2.33A47.05,47.05,0,0,0,366,355.21c1.18,0,2.3,0,3.38,0,8.87-.2,15.39-1.23,21.3-3.35,17.09-6.14,28.4-20.31,30.71-37.84l18.81-1.9a42.34,42.34,0,0,0,9.51,23.26c9.13,11,23.69,17.47,43.28,19.24,3.24.3,9.2.63,26.73.63,1.39,0,2.74,0,4,0,10.13-.2,18-1.17,25.07-3.09,22.09-6,35.56-20.66,39.77-34.9,5.49,17.09,20.82,26.31,29,31.19,7.48,4.49,15.34,6.13,24.77,6.64l1.2.05c.8,0,1.59.08,2.42.1,1.39,0,2.82,0,4.33,0a48.86,48.86,0,0,0,35.85-15.69,35.5,35.5,0,0,0,3.33-4.12l.62-.88a35.79,35.79,0,0,0,5.8-14.13c12.65,22.54,35.51,34.82,66.79,34.82,10.38,0,25.08-3,39-16.24,8.3,5.94,18.53,9.14,30.17,9.14a50.71,50.71,0,0,0,19.5-4.27c5.55,7.06,14.25,11.37,24.59,11.37,16.54,0,34-.72,51.93-2.13,20.55-1.62,34.34-3.86,43.39-7.05.11,0,.19-.07.3-.11,6.06,4.21,14.85,7.55,27.75,8.72,2.73.25,8.33.57,25.51.57,10.89,0,18.79-.82,25.59-2.66a43.93,43.93,0,0,0,12.15-5.22,22.14,22.14,0,0,0,5.36,1.41l44.09,5.33v8.1a22.5,22.5,0,0,0,22.5,22.5h29.09a22.5,22.5,0,0,0,22.5-22.5V355.1a107.44,107.44,0,0,0,27.52-8.63,69.34,69.34,0,0,0,33-33,185.1,185.1,0,0,0,21.12.55c0,1.15,0,2.26,0,3.41,0,15.65,5.19,26.7,15.43,32.85,6.84,4.11,14.62,4.91,25.76,4.91a35.47,35.47,0,0,0,26-11.44,22.44,22.44,0,0,0,2.09-2.58l.61-.88a22.5,22.5,0,0,0,4-12.84v-.89c0-19,.94-46.76,2.46-72.5,1.09-20,2.14-33,3-41.39,10.63-.75,20.47-1.43,29.4-2l1-.06a22.55,22.55,0,0,0,16.54-9l3.43-4.59A22.49,22.49,0,0,0,1400.26,175.06Z" fill="#2f592b"></path><path d="M983.09,132.64H947c.25-.66.29-.91.35-.91,8.74-.47,9.16-6.84,9.19-13.23q.15-32.55.05-65.12c0-6.36-2.43-8.32-9.86-8.71-8.51-.45-10.59,1.53-10.73,10-.25,15.93-.14,31.89-1,47.8-1.3,25.12-19.93,34.51-41.36,32.53-24.64-2.28-30.9-17.36-31.57-37.52-.49-14.78-.14-29.59-.1-44.39,0-4.32-1.33-7.34-7.19-7.72v14.5l-1.4.8c-1.68-12-10.73-10.38-18.48-11-3.56-.28-7.17,0-11.11,0-.12,1.64-.32,3.06-.32,4.48q0,30.59,0,61.17c0,1.32,0,2.63.06,3.95.35,9.75.69,10.12,10.33,11.79a2.81,2.81,0,0,1,2.07,1.6H798.23c9.4-4.24,9.45-4.24,9.47-15.13q.07-31.57,0-63.14c0-1.45-.15-2.89-.27-5.08-8.09.45-16,.22-23.67,1.63-3.14.58-5.63,4.69-8.89,7.63.45-4.27.94-8.75,1.41-13.23-6.11-1.09-8.52.54-9.21,6.54-.4,3.42-.58,6.88-.64,10.33-.41,22.52-.73,45-1.19,67.56,0,1.79-1,3.55-1.47,5.33-1.67-.9-3.69-1.46-4.94-2.76q-29.19-30.11-58.2-60.37l-3.51-3.68c-.39.7-.8,1.09-.78,1.47.44,15.94.65,31.89,1.49,47.81.6,11.4,1,11.38,11.61,15H677.09c.57-.68.72-1.07,1-1.14,9.12-2.62,9.19-2.61,9.35-12,.43-23.51.76-47,1.21-70.53a80.66,80.66,0,0,1,.91-8l1.69-.79L757.51,110a8.1,8.1,0,0,0,.7-1.93c-.44-17.91-.71-35.84-1.47-53.74-.35-8-1.47-8.67-9.41-9.66-.62-.08-1.22-.27-2-1.47a22.57,22.57,0,0,1,3.6-.61c8.05,0,16.18.65,24.15-.19,11.9-1.25,23.68.81,35.55.27,12.14-.55,24.33-.13,36.5-.13q18.87,0,37.76,0c1.51,0,3,.21,4.75.34-.43.91-.49,1.36-.69,1.43-9,3.17-9.14,3.17-9,12.65.17,16.76.23,33.53,1,50.26.41,8.67,4.66,15.76,13.13,19.26s16.43,2.72,23.82-2.58,8.77-13.4,9-21.48c.4-16.43.1-32.88.09-49.32,0-4.85-2.26-7.7-7.23-8.21a5.72,5.72,0,0,1-4-1.93c1.5-.15,3-.42,4.49-.42,21.7,0,43.4-.11,65.1.06a50.36,50.36,0,0,1,12.62,1.76c14,3.79,20.18,17.33,13.3,30.14-3.19,6-8.16,11-12.91,17.15,5.6,7.11,11.54,15.12,18,22.68a100.73,100.73,0,0,0,14.35,14c4.65,3.62,6.35,2.57,7.41-3.23a40.11,40.11,0,0,0,.55-7.35q.08-31.08,0-62.16c0-8.91-.45-9.39-9.49-11-.71-.13-1.38-.51-2-1.93H1084c-.49,5.18-1,10.92-1.62,17-.92-.55-1.33-.65-1.4-.85-2.67-8.62-3.63-9.34-12.82-9.43-5.06,0-10.11,0-15.46,0v32c9.75-.82,19.52,1.56,29.51-2.9q-.84,9.93-1.66,19.84c-4.06-10.12-4.26-10.28-15.26-10.39-4.08,0-8.16,0-12.75,0,0,11-.34,21.61.28,32.19.13,2.22,3.57,5.64,5.92,6a79.6,79.6,0,0,0,17.54.57c4.35-.23,7.08-3.05,8-7.49a24.81,24.81,0,0,1,1.39-3.74l1.74.34c-.77,5.33-1.26,10.73-2.53,15.93-.29,1.17-3.38,2.34-5.16,2.33-11.51-.1-23-.58-34.51-.82-6.88-.13-13.78-.24-20.66,0-9.6.32-16.75-3.83-22.16-11.43-4.57-6.42-9.5-12.65-13.38-19.47-3-5.34-6.81-7.53-12.7-6.63a42.36,42.36,0,0,1-5.23,0c.54,10.61.93,21,1.78,31.37.09,1.18,2.67,2.48,4.33,3.12,1.87.71,4,.73,6,1.06Zm14.78-62.3c-.67-14.76-9-23.09-22.31-21.76-2.28.23-4.11.54-4.08,3.6.11,11.14,0,22.28.13,33.41a4.47,4.47,0,0,0,1.95,3.32,15.7,15.7,0,0,0,21.24-7.38C996.36,78,996.88,74.08,997.87,70.34Z" fill="#fff"></path><path d="M329.53,132.54c1.38-.88,1.76-1.33,2.13-1.33,9.81.1,13.32-6.68,16.21-14.46Q364,73.23,380.4,29.81c.9-2.4,2-4.71,3.06-7.06L385,22.5a66.57,66.57,0,0,1,3.3,6.53c10.56,27.86,21,55.77,31.61,83.61a94.28,94.28,0,0,0,6.27,12.76,11.19,11.19,0,0,0,4.21,4c6.2,3.44,10.16,1.54,11-5.39a113.91,113.91,0,0,0,.34-12.81q0-27.87,0-55.74c0-8.51-.85-9.47-9.2-10.77a3.22,3.22,0,0,1-2.34-1.52,23.54,23.54,0,0,1,3.95-.58c17.58.26,35.2-.11,52.72,1C518.72,45.68,530,70.51,526.84,94c-4.22,31-26.94,41.52-54.22,41.13-20-.28-40-1.38-60-2.14-2.28-.08-4.56-.31-6-.41,0-3.08.64-5.93-.12-8.34-2.46-7.8-5.56-15.4-8.13-23.17-1-3.08-2.32-4.5-5.85-4.36-7.88.3-15.78.24-23.67,0-3-.08-4.3,1.08-5.18,3.81-1.85,5.76-4.05,11.42-6.05,17.13-3.75,10.72-3.39,11.44,6.76,14.91ZM511.2,91.73c.32-31.09-21.42-44-47.07-43.15-6.07.21-6.68,1-6.68,7q0,28.08,0,56.16c0,13.21-.16,16.63,18.05,17.53.82,0,1.64,0,2.46,0,16.77-.89,27.61-8.9,31.2-23.45C510.29,101.21,510.54,96.42,511.2,91.73Zm-117.09-2.1c-4.29-12.7-8.43-24.9-12.56-37.1l-1.08.11-12.79,37Z" fill="#fff"></path><path d="M517.07,26.49h41.28c-9.32,3.92-9.45,4-6.08,13.58,7.57,21.63,15.28,43.2,23,64.79.3.84.8,1.62,1.65,3.3,3.18-8.53,6.09-16.29,9-24q8-21.64,16-43.29c3.78-10.3,3.75-10.31-6-14.34h31.86c.2.41.4.83.59,1.25-10.42-.48-13,7.06-16,14.31q-17.73,43.17-35.58,86.29c-1,2.48-2.5,4.76-4.53,8.55-1.87-3.8-3.25-6.12-4.21-8.6q-16-41.2-31.84-82.46c-3.52-9.11-6-19.27-20-17.67Z" fill="#fff"></path><path d="M614.76,42.59h58.78L672,59.44l-1.54,1c0-11.89-8-11-15.36-11-4.1,0-8.19,0-12.69,0v32c9.75-1,19.59,1.86,29.42-3.23-.55,6.89-1.08,13.43-1.62,20.19-.85-.32-1.27-.37-1.3-.5-2.11-8.9-3.05-9.7-12.18-9.88-4.27-.08-8.54,0-12.82,0a9.19,9.19,0,0,0-1.81.46c0,10.44-.34,20.92.27,31.35.13,2.31,3.34,5.95,5.59,6.34a80.24,80.24,0,0,0,18,.63c6.62-.36,7.59-6.21,9.17-11.45,1.75,3.29,1.13,15.42-1,17.46a6.13,6.13,0,0,1-4,1.43c-17.07,0-34.15-.23-51.23-.44-.85,0-1.7-.61-3.11-1.15.94-.69,1.36-1.24,1.86-1.34,7.61-1.49,8.31-2.08,8.4-10.31.17-15.94.1-31.88.12-47.83q0-9.36,0-18.73c0-7.11-1.2-8.46-8.29-9.6-.81-.13-1.63-.21-2.42-.39-.28-.07-.5-.4-.74-.6C614.73,43.38,614.75,43,614.76,42.59Z" fill="#fff"></path><path d="M156.9,273.75a8.58,8.58,0,0,0-6.61-3.29c-1.09,0-2.22,0-14,10.38-8.84,7.78-16.71,13.77-23.42,17.8-10.4,6.29-20,9.49-28.5,9.49-21.53,0-32-10.69-32-32.68s3.47-41.24,10.32-57.32c9-21.2,22-31.5,39.93-31.5,4.84,0,7.87,2.07,9.52,6.51,1.12,3.08,1.69,9,1.69,17.72v4.33c0,11.72,1.12,19.73,3.43,24.5,3.58,7.35,9.79,11.08,18.45,11.08a31.57,31.57,0,0,0,4.43-.25l3-.43.42-1.36a47.69,47.69,0,0,0,2.15-14.14c0-20-5.06-37.13-15-50.84-11.2-15.61-26.87-23.53-46.56-23.53-20.85,0-37.21,14.06-48.65,41.79a175.23,175.23,0,0,0-13,67.05c0,17.15,6.73,32.22,20,44.78s28.61,18.87,45.72,18.87c11.52,0,25.74-5.8,43.49-17.73,18.78-12.74,27.92-24,27.92-34.51A10.21,10.21,0,0,0,156.9,273.75Z" fill="#94bb58"></path><path d="M323.2,300.38,317.72,298l-.88.34c-13.11,5.17-18.87,6.26-21.4,6.26-.42,0-4.15-.56-4.15-19.74,0-.91.07-3.08.23-6.57.15-4.26.3-8,.46-11.25.3-12.13,1.45-26.63,3.42-43.12,2.14-19.27,3.22-33.92,3.22-43.56,0-3.64-2.1-8-12.11-8-7.84,0-13.82,1.52-17.84,4.52-6.44-5.81-11.18-9.59-14.48-11.54a39.86,39.86,0,0,0-20.39-5.12c-18.9,0-35.17,14.47-48.34,43-10.79,23.41-16.25,46-16.25,67.17,0,41.34,18.72,62.3,55.65,62.3,10.12,0,19.25-4.66,27.16-13.86,3.64-4.29,7.8-10.78,12.65-19.75,3.58,17.6,13.44,26.51,29.4,26.51,5.19,0,11.3-2.13,18.69-6.51,7.65-4.54,11.53-9.51,11.53-14.77ZM264.08,214c0,36.93-9.87,65.54-29.36,85-8.07,8.08-15.32,12.17-21.54,12.17-9.5,0-11.5-19.33-11.5-35.55,0-15.38,4-33.37,12-53.48,9.51-24,20.37-36.15,32.28-36.15,6,0,10.53,3,13.82,9.35A38.84,38.84,0,0,1,264.08,214Z" fill="#94bb58"></path><path d="M861,300.38,855.47,298l-.88.34c-13.11,5.17-18.87,6.26-21.4,6.26-.42,0-4.15-.56-4.15-19.74,0-.91.07-3.08.23-6.57.15-4.26.3-8,.46-11.25.3-12.13,1.45-26.63,3.42-43.12,2.14-19.27,3.22-33.92,3.22-43.56,0-3.64-2.1-8-12.11-8-7.84,0-13.82,1.52-17.84,4.52-6.44-5.81-11.18-9.59-14.48-11.54a39.86,39.86,0,0,0-20.39-5.12c-18.9,0-35.17,14.47-48.34,43-10.79,23.41-16.25,46-16.25,67.17,0,41.34,18.72,62.3,55.65,62.3,10.12,0,19.25-4.66,27.16-13.86,3.64-4.29,7.8-10.78,12.65-19.75,3.58,17.6,13.44,26.51,29.4,26.51,5.19,0,11.3-2.13,18.69-6.51,7.65-4.54,11.53-9.51,11.53-14.77ZM801.83,214c0,36.93-9.87,65.54-29.36,85-8.07,8.08-15.32,12.17-21.54,12.17-9.5,0-11.5-19.33-11.5-35.55,0-15.38,4-33.37,12-53.48,9.51-24,20.37-36.15,32.28-36.15,6,0,10.53,3,13.82,9.35A38.84,38.84,0,0,1,801.83,214Z" fill="#94bb58"></path><path d="M436.5,168c-16-5.13-38.6-7.73-67.08-7.73-5.85,0-16.6,2.61-32.87,8-25,8.25-28.17,13.65-28.17,17.43,0,2.93,1.4,5.8,4.14,8.55s5.62,4.14,8.55,4.14c4.25,0,11.24-1.24,21.37-3.77,8.34-2.06,14.4-3.44,18.09-4.12-4.67,38.2-7,79.92-7,124.07,0,15.05,6.77,18.21,12.46,18.21,6,0,10.13-.42,12.56-1.29,4.77-1.71,7.3-5.41,7.3-10.69,0-23.47.6-40.09,1.78-49.48,20.29-.23,39-4.1,55.62-11.5,22.54-10.05,34-24.74,34-43.66C477.17,192.76,463.49,176.56,436.5,168Zm14.14,39.65c0,2.51-1.33,7.28-7.64,15.76-6.06,8.13-14.41,14.66-24.8,19.42a81.66,81.66,0,0,1-28.73,7.3A329.29,329.29,0,0,1,393.85,190a42.73,42.73,0,0,1,10.5-1.39,104,104,0,0,1,28.29,3.85C444.58,195.82,450.64,200.92,450.64,207.6Z" fill="#94bb58"></path><path d="M544.58,185c7.31-1.51,11-4.72,11-9.56,0-10.26-11.6-15.25-35.47-15.25-1.58,0-4.13.08-7.63.24s-6,.23-7.81.23a57.59,57.59,0,0,0-15.42,1.71c-3.12.75-12.59,3-12.59,9.54,0,4.41,2.3,8.18,6.85,11.22a23,23,0,0,0,12.27,4.26,97.58,97.58,0,0,1,2.5,24.49v27c-.36,51.92-1.41,66.46-2.13,70.12-4.95,1.57-8.25,2.71-10,3.43-6.86,2.6-10.2,5.62-10.2,9.22,0,8.71,15.21,10.09,20.22,10.54,3.51.32,11.41.48,23.48.48,12.8,0,29.82-1.19,29.82-11.49,0-3.9-3.63-7.23-11.12-10.15-7.22-2.81-8.19-4.32-8.16-4.19V253.74c-.15-25.93.74-48.14,2.66-66C534.24,187.3,537.38,186.52,544.58,185Z" fill="#94bb58"></path><path d="M1049.7,185c7.32-1.51,11-4.72,11-9.56,0-10.26-11.61-15.25-35.47-15.25q-2.38,0-7.63.24c-3.4.16-6,.23-7.81.23a57.66,57.66,0,0,0-15.43,1.71c-3.11.75-12.59,3-12.59,9.54,0,4.41,2.31,8.18,6.85,11.22a23.1,23.1,0,0,0,12.27,4.26,97.56,97.56,0,0,1,2.51,24.49v27c-.36,51.92-1.41,66.46-2.14,70.12-4.95,1.57-8.25,2.71-10,3.43-6.86,2.6-10.19,5.62-10.19,9.22,0,8.71,15.21,10.09,20.21,10.54,3.51.32,11.41.48,23.48.48,12.8,0,29.82-1.19,29.82-11.49,0-3.9-3.63-7.23-11.11-10.15-7.23-2.81-8.19-4.32-8.16-4.19V253.74c-.16-25.93.74-48.14,2.65-66C1039.36,187.3,1042.51,186.52,1049.7,185Z" fill="#94bb58"></path><path d="M720.32,182.39c-6.08-14.88-8.72-18-10.58-19.15-.88-.49-2.51-1.39-24.46-2.79-2.49-.15-6-.23-10.42-.23-12.66,0-30.74,1.69-53.73,5-26,3.79-43.85,6-53,6.6l-.79.06-.58.53a9.56,9.56,0,0,0-3.47,7.14c0,7.18,5.56,11.69,16.51,13.4,3,.48,9.87.72,20.9.72,21.28,0,30.7.06,34.53.14-2.45,29.38-3.69,74-3.69,123.6,0,7.4,1.44,11.72,4.51,13.57,1.32.79,4.11,1.69,14.18,1.69a12.87,12.87,0,0,0,9.62-4.36l.62-.88v-.89c0-17.85.84-45.72,2.5-73.83,1.82-33.37,3.84-53.94,6-61.21q27-2,47.37-3.32l1-.07,3.43-4.58Z" fill="#94bb58"></path><path d="M1379,182.39c-6.08-14.88-8.72-18-10.58-19.15-.87-.49-2.5-1.39-24.46-2.79-2.49-.15-6-.23-10.41-.23-12.67,0-30.74,1.69-53.74,5-26,3.79-34.84,6-44,6.6l-.79.06-.59.53a9.55,9.55,0,0,0-3.46,7.14c0,7.18,5.55,11.69,16.5,13.4,3,.48.87.72,11.9.72,21.28,0,30.7.06,34.53.14-2.45,29.38-3.69,74-3.69,123.6,0,7.4,1.44,11.72,4.52,13.57,1.31.79,4.1,1.69,14.17,1.69a12.88,12.88,0,0,0,9.63-4.36l.61-.88v-.89c0-17.85.84-45.72,2.5-73.83,1.83-33.37,3.84-53.94,6-61.21q27-2,47.38-3.32l1-.07,3.43-4.58Z" fill="#94bb58"></path><path d="M926.81,302.42q-1.84,0-15.71.46c-2.59.08-4.63.15-6.24.22l0-7.65a95.16,95.16,0,0,1-.66-12.7c0-8.44,1.3-30.89,3.87-66.69.29-3.52,1.35-9.88,3.16-18.94a186,186,0,0,0,2.33-26.43c0-6.95-6.44-10.47-19.15-10.47-4.79,0-19.36,0-19.36,9.33,0,18.16-.23,48.34-.69,76.65-.78,47.89-1.54,57.29-1.9,58.57-3.48,9-5.17,15.32-5.17,19.3,0,5.49,3.15,8.64,8.64,8.64,16,0,32.83-.69,50.16-2.06,39.94-3.15,45.44-8.1,45.44-13C971.51,307.27,957.31,302.42,926.81,302.42Z" fill="#94bb58"></path><path d="M1134.07,132.33h30V162c10.42,1,19.61,1.65,28.7,3,8.9,1.29,17.69,3.31,25.73,4.85V210h-32.77c-4-20.8-4-20.8-21.22-19.75v38.39c13.88,3.9,27.71,7,40.94,11.73,13.85,5,23.25,15.09,25.3,30.25,3.13,23.12-5.61,45.3-26.92,55.55-12.21,5.88-25.51,7.68-40.26,9.33v26.65h-29.09v-28l-63.89-7.72V281h39.52c2.29,22.4,2.29,22.4,24.62,23.82,0-10.35-.64-20.68.18-30.89.8-10-2.3-13.91-12.83-15.3-11.18-1.47-22.41-5.33-32.69-10.15-13.07-6.13-20-17.19-20-32.34,0-22.46,11-38.45,33.93-46.56,10-3.53,20.51-5.43,30.73-8.06Zm30.6,133.21V304.7c18.44-3.18,27.53-10.62,27.29-21.84C1191.75,272.49,1182.76,266.68,1164.67,265.54Zm-30.47-75.47c-15.93,2.31-24.14,9.74-23.38,20.05.69,9.38,9.1,14.73,23.38,14.6Z" fill="#fee444"></path><g opacity="0.3"><path d="M143.12,242.21l-3,.43a31.36,31.36,0,0,1-4.43.26c-8.66,0-14.87-3.73-18.45-11.08-2.31-4.77-3.43-12.78-3.43-24.5V203c0-8.68-.57-14.64-1.69-17.72-1.65-4.43-4.68-6.51-9.52-6.51-17.89,0-30.95,10.31-39.93,31.5-6.85,16.08-10.32,35.37-10.32,57.33,0,1.07,0,2.09.09,3.11.48-20,3.88-37.66,10.23-52.56,9-21.2,22-31.5,39.93-31.5,4.84,0,7.87,2.07,9.52,6.51,1.12,3.08,1.69,9,1.69,17.72v4.33c0,11.72,1.12,19.73,3.43,24.5,3.58,7.35,9.79,11.08,18.45,11.08a31.57,31.57,0,0,0,4.43-.25l3-.43.42-1.36a47.69,47.69,0,0,0,2.15-14.14c0-1.45-.08-2.86-.14-4.28a47.74,47.74,0,0,1-2,10.54Z" fill="#2f592b"></path><path d="M131.7,307.1C114,319,99.73,324.84,88.21,324.84c-17.11,0-32.49-6.35-45.72-18.88C29.88,294,23.26,279.8,22.62,263.69c-.05,1.79-.12,3.57-.12,5.37,0,17.15,6.73,32.22,20,44.78s28.61,18.87,45.72,18.87c11.52,0,25.74-5.8,43.49-17.73,18.78-12.74,27.92-24,27.92-34.51a9.1,9.1,0,0,0-.63-3.28C156.73,286.37,147.77,296.2,131.7,307.1Z" fill="#2f592b"></path><path d="M259.77,187.53c-3.29-6.31-7.81-9.36-13.82-9.36-11.91,0-22.77,12.17-32.28,36.16-7.95,20.1-12,38.1-12,53.48,0,1.74,0,3.52.09,5.31.41-14.81,4.38-31.9,11.9-50.92,9.51-24,20.37-36.15,32.28-36.15,6,0,10.53,3,13.82,9.35a37.47,37.47,0,0,1,4.15,15.53c0-1.6.16-3.13.16-4.77A38.82,38.82,0,0,0,259.77,187.53Z" fill="#2f592b"></path><path d="M312.76,311.23c-7.39,4.38-13.5,6.5-18.69,6.5-16,0-25.82-8.91-29.4-26.5-4.85,9-9,15.45-12.65,19.74-7.91,9.21-17,13.87-27.16,13.87-35.66,0-54.29-19.61-55.53-58.18,0,1.25-.12,2.51-.12,3.75,0,41.34,18.72,62.3,55.65,62.3,10.12,0,19.25-4.66,27.16-13.86,3.64-4.29,7.8-10.78,12.65-19.75,3.58,17.6,13.44,26.51,29.4,26.51,5.19,0,11.3-2.13,18.69-6.51,7.65-4.54,11.53-9.51,11.53-14.77l-1-3.5C321.76,304.49,318.25,308,312.76,311.23Z" fill="#2f592b"></path><path d="M797.52,187.53c-3.29-6.31-7.81-9.36-13.82-9.36-11.91,0-22.77,12.17-32.28,36.16-7.95,20.1-12,38.1-12,53.48,0,1.74,0,3.52.09,5.31.41-14.81,4.38-31.9,11.9-50.92,9.51-24,20.37-36.15,32.28-36.15,6,0,10.53,3,13.82,9.35a37.47,37.47,0,0,1,4.15,15.53c0-1.6.16-3.13.16-4.77A38.82,38.82,0,0,0,797.52,187.53Z" fill="#2f592b"></path><path d="M850.51,311.23c-7.39,4.38-13.5,6.5-18.69,6.5-16,0-25.82-8.91-29.4-26.5-4.85,9-9,15.45-12.65,19.74-7.91,9.21-17,13.87-27.16,13.87-35.66,0-54.29-19.61-55.53-58.18,0,1.25-.12,2.51-.12,3.75,0,41.34,18.72,62.3,55.65,62.3,10.12,0,19.25-4.66,27.16-13.86,3.64-4.29,7.8-10.78,12.65-19.75,3.58,17.6,13.44,26.51,29.4,26.51,5.19,0,11.3-2.13,18.69-6.51,7.65-4.54,11.53-9.51,11.53-14.77l-1-3.5C859.51,304.49,856,308,850.51,311.23Z" fill="#2f592b"></path><path d="M360.53,182.55c-3.69.69-9.75,2.07-18.09,4.13-10.13,2.53-17.12,3.76-21.37,3.76-2.93,0-5.81-1.39-8.55-4.13a16,16,0,0,1-3-4.13,6.19,6.19,0,0,0-1.09,3.45c0,2.93,1.4,5.8,4.14,8.55s5.62,4.14,8.55,4.14c4.25,0,11.24-1.24,21.37-3.77,7.75-1.91,13.44-3.21,17.18-3.94C359.92,187.92,360.21,185.21,360.53,182.55Z" fill="#2f592b"></path><path d="M393.85,190a42.73,42.73,0,0,1,10.5-1.39,104,104,0,0,1,28.29,3.85c9.52,2.69,15.23,6.48,17.19,11.29a12.51,12.51,0,0,0,.81-4c0-6.69-6.06-11.78-18-15.16a104,104,0,0,0-28.29-3.84,42.73,42.73,0,0,0-10.5,1.39" fill="#2f592b"></path><path d="M387.59,271.25c20.29-.23,39-4.1,55.62-11.5,22.54-10.05,34-24.74,34-43.66,0-1.42-.05-2.81-.15-4.18-1.41,17.14-12.76,30.58-33.81,40-16.63,7.4-35.33,11.26-55.62,11.5" fill="#2f592b"></path><path d="M385.81,312.86c0,5.28-2.53,9-7.3,10.69-2.43.87-6.54,1.29-12.56,1.29-5.49,0-12-3-12.42-16.73,0,2.13,0,4.24,0,6.39,0,15.05,6.77,18.21,12.46,18.21,6,0,10.13-.42,12.56-1.29,4.77-1.71,7.3-5.41,7.3-10.69" fill="#2f592b"></path><path d="M495.8,179.55a23.06,23.06,0,0,1-12.27-4.27,15.16,15.16,0,0,1-5.81-6.65,6.1,6.1,0,0,0-1,3.31c0,4.41,2.3,8.18,6.85,11.22a23,23,0,0,0,12.27,4.26" fill="#2f592b"></path><path d="M519.67,324.84c-12.07,0-20-.17-23.48-.48-4.09-.37-15-1.37-18.83-6.45a6.09,6.09,0,0,0-1.39,3.78c0,8.71,15.21,10.09,20.22,10.54,3.51.32,11.41.48,23.48.48,12.8,0,29.82-1.19,29.82-11.49a6.44,6.44,0,0,0-1.23-3.67C544.18,324,530.45,324.84,519.67,324.84Z" fill="#2f592b"></path><path d="M532.87,187.7c1.37-.4,4.51-1.18,11.71-2.67s11-4.72,11-9.56a11.17,11.17,0,0,0-.84-4.3c-1.46,2.87-4.85,4.89-10.18,6-7.2,1.5-10.34,2.28-11.71,2.68" fill="#2f592b"></path><path d="M1038,187.7c1.37-.4,4.52-1.18,11.71-2.67s11-4.72,11-9.56a11.18,11.18,0,0,0-.85-4.3c-1.46,2.87-4.85,4.89-10.18,6-7.19,1.5-10.34,2.28-11.71,2.68" fill="#2f592b"></path><path d="M1000.92,179.55a23.12,23.12,0,0,1-12.27-4.27,15.29,15.29,0,0,1-5.81-6.65,6.18,6.18,0,0,0-1,3.31c0,4.41,2.31,8.18,6.85,11.22a23.1,23.1,0,0,0,12.27,4.26" fill="#2f592b"></path><path d="M1024.79,324.84c-12.07,0-20-.17-23.48-.48-4.08-.37-15-1.37-18.82-6.45a6,6,0,0,0-1.39,3.78c0,8.71,15.21,10.09,20.21,10.54,3.51.32,11.41.48,23.48.48,12.8,0,29.82-1.19,29.82-11.49a6.5,6.5,0,0,0-1.22-3.67C1049.3,324,1035.57,324.84,1024.79,324.84Z" fill="#2f592b"></path><path d="M660.46,318.71v.89l-.62.88a12.87,12.87,0,0,1-9.62,4.36c-10.07,0-12.86-.91-14.18-1.7-3-1.81-4.44-6-4.5-13.11,0,2.46,0,4.93,0,7.42,0,7.4,1.44,11.72,4.51,13.57,1.32.79,4.11,1.69,14.18,1.69a12.87,12.87,0,0,0,9.62-4.36l.62-.88v-.89" fill="#2f592b"></path><path d="M669,191.54q27-2,47.37-3.32l1-.07,3.43-4.58-.48-1.18c-.58-1.41-1.11-2.68-1.63-3.88l-1.32,1.77-1,.07Q696,181.69,669,183.66" fill="#2f592b"></path><path d="M635.22,186c-3.83-.07-13.25-.14-34.53-.14-11,0-17.87-.23-20.9-.71-8.59-1.34-13.81-4.43-15.68-9.16a8.46,8.46,0,0,0-.83,3.63c0,7.18,5.56,11.69,16.51,13.4,3,.48,9.87.72,20.9.72,20.27,0,29.77.06,33.93.13C634.81,191.12,635,188.47,635.22,186Z" fill="#2f592b"></path><path d="M926.07,322.77c-17.32,1.37-34.2,2.07-50.16,2.07-4.19,0-7-1.85-8.11-5.16a24.59,24.59,0,0,0-.53,4.39c0,5.49,3.15,8.64,8.64,8.64,16,0,32.84-.69,50.16-2.06,39.94-3.15,45.44-8.1,45.44-13a9.53,9.53,0,0,0-1.17-4.63C967.31,316.79,957.1,320.32,926.07,322.77Z" fill="#2f592b"></path></g><path d="M1293.85,184.85c-3.83-.08-13.25-.14-34.53-.14-11,0-8.87-.24-11.9-.72-8.18-1.27-13.35-4.12-15.44-8.47a8.49,8.49,0,0,0-1.06,4.07c0,7.18,5.55,11.69,16.5,13.4,3,.48.87.72,11.9.72,20.14,0,29.65.06,33.86.12C1293.39,190.72,1293.61,187.69,1293.85,184.85Z" fill="#2f592b" opacity="0.3"></path><path d="M1327.59,191.54q27-2,47.38-3.32l1-.07,3.43-4.58-.48-1.18c-.69-1.69-1.33-3.2-1.93-4.6l-1,1.36-1,.07q-20.35,1.34-47.38,3.32" fill="#2f592b" opacity="0.3"></path><path d="M1319.09,317.58v.89l-.61.88a12.88,12.88,0,0,1-9.63,4.36c-10.07,0-12.86-.9-14.17-1.69-3-1.81-4.43-6-4.5-13,0,2.81,0,5.63,0,8.48,0,7.4,1.44,11.72,4.52,13.57,1.31.79,4.1,1.69,14.17,1.69a12.88,12.88,0,0,0,9.63-4.36l.61-.88v-.89" fill="#2f592b" opacity="0.3"></path><path d="M112.83,298.64c-10.4,6.29-20,9.49-28.5,9.49-20.53,0-31-9.75-31.9-29.72,0,1.51-.09,3-.09,4.54,0,22,10.46,32.68,32,32.68,8.51,0,18.1-3.2,28.5-9.49,6.71-4,14.59-10,23.42-17.8C148.07,278,149.2,278,150.29,278a8.58,8.58,0,0,1,6.61,3.29,11.51,11.51,0,0,1,2.15,3.63,19.19,19.19,0,0,0,.57-4.41,10.21,10.21,0,0,0-2.72-6.72,8.58,8.58,0,0,0-6.61-3.29c-1.09,0-2.22,0-14,10.38C127.42,288.62,119.54,294.61,112.83,298.64Z" fill="#cddf77"></path><path d="M35.45,209.51c11.44-27.73,27.8-41.79,48.65-41.79,19.69,0,35.36,7.92,46.56,23.53,9.28,12.77,14.25,28.52,14.9,46.78.08-1.14.13-2.29.13-3.44,0-20-5.06-37.13-15-50.84-11.2-15.61-26.87-23.53-46.56-23.53-20.85,0-37.21,14.06-48.65,41.79a175.23,175.23,0,0,0-13,67.05c0,.81.09,1.59.12,2.38A174,174,0,0,1,35.45,209.51Z" fill="#cddf77"></path><path d="M213.18,318.73c6.22,0,13.47-4.09,21.54-12.17,19.49-19.48,29.36-48.09,29.36-85,0-1-.09-2-.15-3-.8,34.7-10.55,61.82-29.21,80.48-8.07,8.08-15.32,12.17-21.54,12.17-8.52,0-11-15.54-11.42-30.44,0,.79-.07,1.61-.07,2.39C201.69,299.4,203.68,318.73,213.18,318.73Z" fill="#cddf77"></path><path d="M291.37,289.29c-.05,1.46-.08,2.52-.08,3.06,0,19.18,3.73,19.74,4.15,19.74,2.53,0,8.29-1.09,21.4-6.26l.88-.34,5.48,2.39.19.69a11,11,0,0,0,.9-4.24l-1.09-3.95L317.72,298l-.88.34c-13.11,5.17-18.87,6.26-21.4,6.26C295.05,304.59,291.91,304.08,291.37,289.29Z" fill="#cddf77"></path><path d="M185.46,210.74c13.17-28.55,29.44-43,48.34-43a39.86,39.86,0,0,1,20.39,5.12c3.3,1.95,8,5.73,14.48,11.54,4-3,10-4.52,17.84-4.52,8.7,0,11.42,3.28,12,6.53.08-2.17.13-4.22.13-6,0-3.64-2.1-8-12.11-8-7.84,0-13.82,1.52-17.84,4.52-6.44-5.81-11.18-9.59-14.48-11.54a39.86,39.86,0,0,0-20.39-5.12c-18.9,0-35.17,14.47-48.34,43-10.79,23.41-16.25,46-16.25,67.17,0,1.35.07,2.62.11,3.93C169.9,254.21,175.28,232.85,185.46,210.74Z" fill="#cddf77"></path><path d="M750.93,318.73c6.22,0,13.47-4.09,21.54-12.17,19.49-19.48,29.36-48.09,29.36-85,0-1-.09-2-.15-3-.8,34.7-10.55,61.82-29.21,80.48-8.07,8.08-15.32,12.17-21.54,12.17-8.52,0-11-15.54-11.42-30.44,0,.79-.07,1.61-.07,2.39C739.44,299.4,741.43,318.73,750.93,318.73Z" fill="#cddf77"></path><path d="M829.12,289.29c0,1.46-.08,2.52-.08,3.06,0,19.18,3.73,19.74,4.15,19.74,2.53,0,8.29-1.09,21.4-6.26l.88-.34,5.48,2.39.19.69a11,11,0,0,0,.9-4.24L861,300.38,855.47,298l-.88.34c-13.11,5.17-18.87,6.26-21.4,6.26C832.8,304.59,829.66,304.08,829.12,289.29Z" fill="#cddf77"></path><path d="M723.21,210.74c13.17-28.55,29.44-43,48.34-43a39.86,39.86,0,0,1,20.39,5.12c3.3,1.95,8,5.73,14.48,11.54,4-3,10-4.52,17.84-4.52,8.7,0,11.42,3.28,12,6.53.08-2.17.13-4.22.13-6,0-3.64-2.1-8-12.11-8-7.84,0-13.82,1.52-17.84,4.52-6.44-5.81-11.18-9.59-14.48-11.54a39.86,39.86,0,0,0-20.39-5.12c-18.9,0-35.17,14.47-48.34,43-10.79,23.41-16.25,46-16.25,67.17,0,1.35.07,2.62.11,3.93C707.65,254.21,713,232.85,723.21,210.74Z" fill="#cddf77"></path><path d="M336.55,175.7c16.27-5.37,27-8,32.87-8,28.48,0,51,2.6,67.08,7.73,25.46,8.12,39.06,23,40.53,44.24.09-1.18.14-2.38.14-3.6,0-23.33-13.68-39.53-40.67-48.14-16-5.13-38.6-7.73-67.08-7.73-5.85,0-16.6,2.61-32.87,8-25,8.25-28.17,13.65-28.17,17.43a10,10,0,0,0,1,4.2C311.53,186.35,318.07,181.81,336.55,175.7Z" fill="#cddf77"></path><path d="M418.2,250.28c10.39-4.76,18.74-11.29,24.8-19.42,6.31-8.48,7.64-13.25,7.64-15.76a10.14,10.14,0,0,0-.74-3.67C449,214.19,447,218,443,223.36c-6.06,8.13-14.41,14.66-24.8,19.42a81.6,81.6,0,0,1-28.68,7.29c0,2.5-.09,5,0,7.51A81.66,81.66,0,0,0,418.2,250.28Z" fill="#cddf77"></path><path d="M489.27,169.9a57.59,57.59,0,0,1,15.42-1.71c1.79,0,4.41-.07,7.81-.23s6-.24,7.63-.24c20.44,0,31.86,3.67,34.72,11.17a7.87,7.87,0,0,0,.75-3.42c0-10.26-11.6-15.25-35.47-15.25-1.58,0-4.13.08-7.63.24s-6,.23-7.81.23a57.59,57.59,0,0,0-15.42,1.71c-3.12.75-12.59,3-12.59,9.54a11.47,11.47,0,0,0,.94,4.35C480,172.18,486.73,170.51,489.27,169.9Z" fill="#cddf77"></path><path d="M538.37,311.07c-7.22-2.81-8.19-4.32-8.16-4.19v7.5c0-.13.94,1.38,8.16,4.19,5.15,2,8.44,4.22,10,6.67a7.7,7.7,0,0,0,1.11-4C549.49,317.32,545.86,314,538.37,311.07Z" fill="#cddf77"></path><path d="M496.17,309c-4.95,1.57-8.25,2.71-10,3.43-6.86,2.6-10.2,5.62-10.2,9.22a6.58,6.58,0,0,0,1.28,3.91c1.53-2.08,4.47-3.94,8.92-5.63,1.75-.72,5.05-1.86,10-3.43" fill="#cddf77"></path><path d="M994.39,169.9a57.66,57.66,0,0,1,15.43-1.71c1.78,0,4.41-.07,7.81-.23s6-.24,7.63-.24c20.44,0,31.85,3.67,34.72,11.17a7.87,7.87,0,0,0,.75-3.42c0-10.26-11.61-15.25-35.47-15.25q-2.38,0-7.63.24c-3.4.16-6,.23-7.81.23a57.66,57.66,0,0,0-15.43,1.71c-3.11.75-12.59,3-12.59,9.54a11.48,11.48,0,0,0,1,4.35C985.16,172.18,991.85,170.51,994.39,169.9Z" fill="#cddf77"></path><path d="M1001.29,309c-4.95,1.57-8.25,2.71-10,3.43-6.86,2.6-10.19,5.62-10.19,9.22a6.58,6.58,0,0,0,1.27,3.91c1.54-2.08,4.48-3.94,8.92-5.63,1.75-.72,5.05-1.86,10-3.43" fill="#cddf77"></path><path d="M1043.5,311.07c-7.23-2.81-8.19-4.32-8.16-4.19v7.5c0-.13.93,1.38,8.16,4.19,5.15,2,8.43,4.22,10,6.67a7.62,7.62,0,0,0,1.12-4C1054.62,317.32,1051,314,1043.5,311.07Z" fill="#cddf77"></path><path d="M566.75,180l.58-.53.79-.06c9.16-.59,27-2.81,53-6.6,23-3.35,41.07-5,53.73-5,4.43,0,7.93.08,10.42.23,22,1.4,23.58,2.3,24.46,2.79,1.7,1,4,3.77,9,15.51l2-2.68-.48-1.18c-6.08-14.88-8.72-18-10.58-19.15-.88-.49-2.51-1.39-24.46-2.79-2.49-.15-6-.23-10.42-.23-12.66,0-30.74,1.7-53.73,5-26,3.79-43.85,6-53,6.6l-.79.06-.58.53a9.56,9.56,0,0,0-3.47,7.14,11.57,11.57,0,0,0,.76,4A11.21,11.21,0,0,1,566.75,180Z" fill="#cddf77"></path><path d="M904.84,303l0,7.65c1.61-.07,3.65-.14,6.24-.22q13.86-.47,15.71-.46c25.8,0,39.9,3.48,43.65,10.86a5,5,0,0,0,1-3.1c0-10.41-14.2-15.26-44.7-15.26q-1.84,0-15.71.46c-2.59.08-4.63.15-6.24.22" fill="#cddf77"></path><path d="M875,177.05c0-9.33,14.57-9.33,19.36-9.33,11.69,0,18,3,19,8.9.13-2.43.2-4.53.2-5.93,0-6.95-6.44-10.47-19.15-10.47-4.79,0-19.36,0-19.36,9.33" fill="#cddf77"></path><path d="M1134.07,132.33h30V162c10.42,1,19.61,1.65,28.7,3,8.9,1.29,17.7,3.31,25.73,4.85V210h-32.77c-4-20.8-4-20.8-21.22-19.75v38.39c13.88,3.9,27.71,7,40.94,11.73,13.85,5,23.25,15.09,25.3,30.25,3.13,23.12-5.61,45.3-26.92,55.55-12.21,5.88-25.51,7.68-40.26,9.33v26.65h-29.09v-28l-63.89-7.72V281h39.52c2.29,22.4,2.29,22.4,24.62,23.82,0-10.35-.64-20.68.18-30.89.8-10-2.3-13.91-12.83-15.3-11.18-1.47-22.41-5.33-32.68-10.15-13.08-6.13-20-17.19-20-32.34,0-22.46,11-38.45,33.93-46.56,10-3.53,20.51-5.43,30.73-8.06Zm30.6,133.21V304.7c18.44-3.18,27.53-10.63,27.3-21.84C1191.75,272.49,1182.76,266.68,1164.67,265.54Zm-30.47-75.47c-15.93,2.31-24.14,9.74-23.38,20.05.69,9.38,9.1,14.73,23.38,14.6Z" fill="#fee444"></path><path d="M1089.4,248.5c10.27,4.82,21.5,8.68,32.68,10.15,8.29,1.09,11.93,3.78,12.73,9.74,0-.65,0-1.31.1-2,.8-10-2.3-13.91-12.83-15.3-11.18-1.47-22.41-5.33-32.68-10.15-12.17-5.7-19-15.73-19.82-29.3-.11,1.46-.17,2.95-.17,4.48C1069.37,231.31,1076.32,242.37,1089.4,248.5Z" fill="#b19630"></path><path d="M1110.82,202.61a14.13,14.13,0,0,0,.47,2.56c1.87-7.7,9.68-13.18,22.91-15.1v-7.51C1118.27,184.86,1110.06,192.3,1110.82,202.61Z" fill="#b19630"></path><path d="M1164.67,258v7.52c16.1,1,24.95,5.75,26.86,14.08a18.07,18.07,0,0,0,.44-4.28C1191.75,265,1182.76,259.17,1164.67,258Z" fill="#b19630"></path><path d="M1185.73,210h32.77V202.5h-32.77c-4-20.8-4-20.8-21.22-19.75v7.52C1181.68,189.22,1181.68,189.22,1185.73,210Z" fill="#b19630"></path><path d="M1134.48,362.17h29.09v-7.51h-29.09Z" fill="#b19630"></path><path d="M1203.83,318.67c-12.21,5.88-25.51,7.68-40.26,9.34v7.51c14.75-1.65,28-3.45,40.26-9.33,19.63-9.44,28.56-29,27.41-50.11C1230.11,294.22,1221.1,310.36,1203.83,318.67Z" fill="#b19630"></path><path d="M1134.48,326.61l-63.89-7.72v7.52l63.89,7.72Z" fill="#b19630"></path><path d="M1164.08,170.24c10.41,1,19.61,1.64,28.69,2.95,8.9,1.29,17.7,3.31,25.74,4.85v-8.47c-8-1.54-16.84-3.56-25.74-4.85-9.08-1.31-18.28-1.91-28.69-2.95Z" fill="#fff4c8"></path><path d="M1192,291.12a15.66,15.66,0,0,0-.55-3.83c-2.13,8.63-11,14.49-26.74,17.2V313C1183.12,309.78,1192.21,302.34,1192,291.12Z" fill="#fff4c8"></path><path d="M1164.51,228.45v8.47c13.88,3.9,27.72,7,40.94,11.73,13.86,5,23.25,15.09,25.3,30.25.22,1.6.36,3.19.47,4.77a65.62,65.62,0,0,0-.47-13.24c-2-15.16-11.44-25.25-25.3-30.25C1192.23,235.42,1178.39,232.35,1164.51,228.45Z" fill="#fff4c8"></path><path d="M1164.08,132.12h-30v8.47h30Z" fill="#fff4c8"></path><path d="M1110.12,280.81H1070.6v8.47h39.52c2.28,22.4,2.28,22.4,24.61,23.82,0-2.82,0-5.65-.1-8.47C1112.41,303.21,1112.4,303.17,1110.12,280.81Z" fill="#fff4c8"></path><path d="M1103.35,177.86c10-3.53,20.5-5.43,30.72-8.06v-8.47c-10.22,2.63-20.76,4.53-30.72,8.06-22.89,8.11-33.88,24.11-33.94,46.56,0,1.26.12,2.44.21,3.64C1071.16,199.67,1082.14,185.38,1103.35,177.86Z" fill="#fff4c8"></path><path d="M1134.2,233v-8.46c-12.59.11-20.6-4.05-22.8-11.47a15.86,15.86,0,0,0-.58,5.33C1111.51,227.76,1119.92,233.11,1134.2,233Z" fill="#fff4c8"></path><path d="M1134.79,276.34c-.27,4.69-.32,9.39-.25,14.11,0-2.75.15-5.5.37-8.24A25.94,25.94,0,0,0,1134.79,276.34Z" fill="#fff4c8"></path></svg>